<?xml version="1.0" encoding="utf-8" standalone="no"?>
<!DOCTYPE svg PUBLIC "-//W3C//DTD SVG 1.1//EN"
  "http://www.w3.org/Graphics/SVG/1.1/DTD/svg11.dtd">
<svg xmlns:xlink="http://www.w3.org/1999/xlink" width="737.817795pt" height="299.630437pt" viewBox="0 0 737.817795 299.630437" xmlns="http://www.w3.org/2000/svg" version="1.1">
 <metadata>
  <rdf:RDF xmlns:dc="http://purl.org/dc/elements/1.1/" xmlns:cc="http://creativecommons.org/ns#" xmlns:rdf="http://www.w3.org/1999/02/22-rdf-syntax-ns#">
   <cc:Work>
    <dc:type rdf:resource="http://purl.org/dc/dcmitype/StillImage"/>
    <dc:format>image/svg+xml</dc:format>
    <dc:creator>
     <cc:Agent>
      <dc:title>Matplotlib v3.11.2, https://matplotlib.org/</dc:title>
     </cc:Agent>
    </dc:creator>
   </cc:Work>
  </rdf:RDF>
 </metadata>
 <defs>
  <style type="text/css">*{stroke-linejoin: round; stroke-linecap: butt}</style>
 </defs>
 <g id="figure_1">
  <g id="patch_1">
   <path d="M 0 299.630437
L 737.817795 299.630437
L 737.817795 0
L 0 0
z
" style="fill: #ffffff"/>
  </g>
  <g id="axes_1">
   <g id="patch_2">
    <path d="M 54.200781 261.429656
L 394.998316 261.429656
L 394.998316 50.354813
L 54.200781 50.354813
z
" style="fill: #ffffff"/>
   </g>
   <g id="matplotlib.axis_1">
    <g id="xtick_1">
     <g id="line2d_1">
      <path d="M 69.691578 261.429656
L 69.691578 50.354813
" clip-path="url(#p841af9daff)" style="fill: none; stroke: #b0b0b0; stroke-opacity: 0.2; stroke-width: 0.8; stroke-linecap: square"/>
     </g>
     <g id="line2d_2">
      <defs>
       <path id="m5e4f4c4333" d="M 0 0
L 0 3.5
" style="stroke: #000000; stroke-width: 0.8"/>
      </defs>
      <g>
       <use xlink:href="#m5e4f4c4333" x="69.691578" y="261.429656" style="stroke: #000000; stroke-width: 0.8"/>
      </g>
     </g>
     <g id="text_1">
      <!-- 0 -->
      <g transform="translate(66.510328 276.027312) scale(0.1 -0.1)">
       <defs>
        <path id="DejaVuSans-13" d="M 2034 4250
Q 1547 4250 1301 3770
Q 1056 3291 1056 2328
Q 1056 1369 1301 889
Q 1547 409 2034 409
Q 2525 409 2770 889
Q 3016 1369 3016 2328
Q 3016 3291 2770 3770
Q 2525 4250 2034 4250
z
M 2034 4750
Q 2819 4750 3233 4129
Q 3647 3509 3647 2328
Q 3647 1150 3233 529
Q 2819 -91 2034 -91
Q 1250 -91 836 529
Q 422 1150 422 2328
Q 422 3509 836 4129
Q 1250 4750 2034 4750
z
" transform="scale(0.015625)"/>
       </defs>
       <use xlink:href="#DejaVuSans-13"/>
      </g>
     </g>
    </g>
    <g id="xtick_2">
     <g id="line2d_3">
      <path d="M 121.327568 261.429656
L 121.327568 50.354813
" clip-path="url(#p841af9daff)" style="fill: none; stroke: #b0b0b0; stroke-opacity: 0.2; stroke-width: 0.8; stroke-linecap: square"/>
     </g>
     <g id="line2d_4">
      <g>
       <use xlink:href="#m5e4f4c4333" x="121.327568" y="261.429656" style="stroke: #000000; stroke-width: 0.8"/>
      </g>
     </g>
     <g id="text_2">
      <!-- 2 -->
      <g transform="translate(118.146318 276.027312) scale(0.1 -0.1)">
       <defs>
        <path id="DejaVuSans-15" d="M 1228 531
L 3431 531
L 3431 0
L 469 0
L 469 531
Q 828 903 1448 1529
Q 2069 2156 2228 2338
Q 2531 2678 2651 2914
Q 2772 3150 2772 3378
Q 2772 3750 2511 3984
Q 2250 4219 1831 4219
Q 1534 4219 1204 4116
Q 875 4013 500 3803
L 500 4441
Q 881 4594 1212 4672
Q 1544 4750 1819 4750
Q 2544 4750 2975 4387
Q 3406 4025 3406 3419
Q 3406 3131 3298 2873
Q 3191 2616 2906 2266
Q 2828 2175 2409 1742
Q 1991 1309 1228 531
z
" transform="scale(0.015625)"/>
       </defs>
       <use xlink:href="#DejaVuSans-15"/>
      </g>
     </g>
    </g>
    <g id="xtick_3">
     <g id="line2d_5">
      <path d="M 172.963558 261.429656
L 172.963558 50.354813
" clip-path="url(#p841af9daff)" style="fill: none; stroke: #b0b0b0; stroke-opacity: 0.2; stroke-width: 0.8; stroke-linecap: square"/>
     </g>
     <g id="line2d_6">
      <g>
       <use xlink:href="#m5e4f4c4333" x="172.963558" y="261.429656" style="stroke: #000000; stroke-width: 0.8"/>
      </g>
     </g>
     <g id="text_3">
      <!-- 4 -->
      <g transform="translate(169.782308 276.027312) scale(0.1 -0.1)">
       <defs>
        <path id="DejaVuSans-17" d="M 2419 4116
L 825 1625
L 2419 1625
L 2419 4116
z
M 2253 4666
L 3047 4666
L 3047 1625
L 3713 1625
L 3713 1100
L 3047 1100
L 3047 0
L 2419 0
L 2419 1100
L 313 1100
L 313 1709
L 2253 4666
z
" transform="scale(0.015625)"/>
       </defs>
       <use xlink:href="#DejaVuSans-17"/>
      </g>
     </g>
    </g>
    <g id="xtick_4">
     <g id="line2d_7">
      <path d="M 224.599549 261.429656
L 224.599549 50.354813
" clip-path="url(#p841af9daff)" style="fill: none; stroke: #b0b0b0; stroke-opacity: 0.2; stroke-width: 0.8; stroke-linecap: square"/>
     </g>
     <g id="line2d_8">
      <g>
       <use xlink:href="#m5e4f4c4333" x="224.599549" y="261.429656" style="stroke: #000000; stroke-width: 0.8"/>
      </g>
     </g>
     <g id="text_4">
      <!-- 6 -->
      <g transform="translate(221.418299 276.027312) scale(0.1 -0.1)">
       <defs>
        <path id="DejaVuSans-19" d="M 2113 2584
Q 1688 2584 1439 2293
Q 1191 2003 1191 1497
Q 1191 994 1439 701
Q 1688 409 2113 409
Q 2538 409 2786 701
Q 3034 994 3034 1497
Q 3034 2003 2786 2293
Q 2538 2584 2113 2584
z
M 3366 4563
L 3366 3988
Q 3128 4100 2886 4159
Q 2644 4219 2406 4219
Q 1781 4219 1451 3797
Q 1122 3375 1075 2522
Q 1259 2794 1537 2939
Q 1816 3084 2150 3084
Q 2853 3084 3261 2657
Q 3669 2231 3669 1497
Q 3669 778 3244 343
Q 2819 -91 2113 -91
Q 1303 -91 875 529
Q 447 1150 447 2328
Q 447 3434 972 4092
Q 1497 4750 2381 4750
Q 2619 4750 2861 4703
Q 3103 4656 3366 4563
z
" transform="scale(0.015625)"/>
       </defs>
       <use xlink:href="#DejaVuSans-19"/>
      </g>
     </g>
    </g>
    <g id="xtick_5">
     <g id="line2d_9">
      <path d="M 276.235539 261.429656
L 276.235539 50.354813
" clip-path="url(#p841af9daff)" style="fill: none; stroke: #b0b0b0; stroke-opacity: 0.2; stroke-width: 0.8; stroke-linecap: square"/>
     </g>
     <g id="line2d_10">
      <g>
       <use xlink:href="#m5e4f4c4333" x="276.235539" y="261.429656" style="stroke: #000000; stroke-width: 0.8"/>
      </g>
     </g>
     <g id="text_5">
      <!-- 8 -->
      <g transform="translate(273.054289 276.027312) scale(0.1 -0.1)">
       <defs>
        <path id="DejaVuSans-1b" d="M 2034 2216
Q 1584 2216 1326 1975
Q 1069 1734 1069 1313
Q 1069 891 1326 650
Q 1584 409 2034 409
Q 2484 409 2743 651
Q 3003 894 3003 1313
Q 3003 1734 2745 1975
Q 2488 2216 2034 2216
z
M 1403 2484
Q 997 2584 770 2862
Q 544 3141 544 3541
Q 544 4100 942 4425
Q 1341 4750 2034 4750
Q 2731 4750 3128 4425
Q 3525 4100 3525 3541
Q 3525 3141 3298 2862
Q 3072 2584 2669 2484
Q 3125 2378 3379 2068
Q 3634 1759 3634 1313
Q 3634 634 3220 271
Q 2806 -91 2034 -91
Q 1263 -91 848 271
Q 434 634 434 1313
Q 434 1759 690 2068
Q 947 2378 1403 2484
z
M 1172 3481
Q 1172 3119 1398 2916
Q 1625 2713 2034 2713
Q 2441 2713 2670 2916
Q 2900 3119 2900 3481
Q 2900 3844 2670 4047
Q 2441 4250 2034 4250
Q 1625 4250 1398 4047
Q 1172 3844 1172 3481
z
" transform="scale(0.015625)"/>
       </defs>
       <use xlink:href="#DejaVuSans-1b"/>
      </g>
     </g>
    </g>
    <g id="xtick_6">
     <g id="line2d_11">
      <path d="M 327.871529 261.429656
L 327.871529 50.354813
" clip-path="url(#p841af9daff)" style="fill: none; stroke: #b0b0b0; stroke-opacity: 0.2; stroke-width: 0.8; stroke-linecap: square"/>
     </g>
     <g id="line2d_12">
      <g>
       <use xlink:href="#m5e4f4c4333" x="327.871529" y="261.429656" style="stroke: #000000; stroke-width: 0.8"/>
      </g>
     </g>
     <g id="text_6">
      <!-- 10 -->
      <g transform="translate(321.509029 276.027312) scale(0.1 -0.1)">
       <defs>
        <path id="DejaVuSans-14" d="M 794 531
L 1825 531
L 1825 4091
L 703 3866
L 703 4441
L 1819 4666
L 2450 4666
L 2450 531
L 3481 531
L 3481 0
L 794 0
L 794 531
z
" transform="scale(0.015625)"/>
       </defs>
       <use xlink:href="#DejaVuSans-14"/>
       <use xlink:href="#DejaVuSans-13" transform="translate(63.625 0)"/>
      </g>
     </g>
    </g>
    <g id="xtick_7">
     <g id="line2d_13">
      <path d="M 379.507519 261.429656
L 379.507519 50.354813
" clip-path="url(#p841af9daff)" style="fill: none; stroke: #b0b0b0; stroke-opacity: 0.2; stroke-width: 0.8; stroke-linecap: square"/>
     </g>
     <g id="line2d_14">
      <g>
       <use xlink:href="#m5e4f4c4333" x="379.507519" y="261.429656" style="stroke: #000000; stroke-width: 0.8"/>
      </g>
     </g>
     <g id="text_7">
      <!-- 12 -->
      <g transform="translate(373.145019 276.027312) scale(0.1 -0.1)">
       <use xlink:href="#DejaVuSans-14"/>
       <use xlink:href="#DejaVuSans-15" transform="translate(63.625 0)"/>
      </g>
     </g>
    </g>
    <g id="text_8">
     <!-- Physical time (s) -->
     <g transform="translate(183.280017 290.028094) scale(0.1 -0.1)">
      <defs>
       <path id="DejaVuSans-33" d="M 1259 4147
L 1259 2394
L 2053 2394
Q 2494 2394 2734 2622
Q 2975 2850 2975 3272
Q 2975 3691 2734 3919
Q 2494 4147 2053 4147
L 1259 4147
z
M 628 4666
L 2053 4666
Q 2838 4666 3239 4311
Q 3641 3956 3641 3272
Q 3641 2581 3239 2228
Q 2838 1875 2053 1875
L 1259 1875
L 1259 0
L 628 0
L 628 4666
z
" transform="scale(0.015625)"/>
       <path id="DejaVuSans-4b" d="M 3513 2113
L 3513 0
L 2938 0
L 2938 2094
Q 2938 2591 2744 2837
Q 2550 3084 2163 3084
Q 1697 3084 1428 2787
Q 1159 2491 1159 1978
L 1159 0
L 581 0
L 581 4863
L 1159 4863
L 1159 2956
Q 1366 3272 1645 3428
Q 1925 3584 2291 3584
Q 2894 3584 3203 3211
Q 3513 2838 3513 2113
z
" transform="scale(0.015625)"/>
       <path id="DejaVuSans-5c" d="M 2059 -325
Q 1816 -950 1584 -1140
Q 1353 -1331 966 -1331
L 506 -1331
L 506 -850
L 844 -850
Q 1081 -850 1212 -737
Q 1344 -625 1503 -206
L 1606 56
L 191 3500
L 800 3500
L 1894 763
L 2988 3500
L 3597 3500
L 2059 -325
z
" transform="scale(0.015625)"/>
       <path id="DejaVuSans-56" d="M 2834 3397
L 2834 2853
Q 2591 2978 2328 3040
Q 2066 3103 1784 3103
Q 1356 3103 1142 2972
Q 928 2841 928 2578
Q 928 2378 1081 2264
Q 1234 2150 1697 2047
L 1894 2003
Q 2506 1872 2764 1633
Q 3022 1394 3022 966
Q 3022 478 2636 193
Q 2250 -91 1575 -91
Q 1294 -91 989 -36
Q 684 19 347 128
L 347 722
Q 666 556 975 473
Q 1284 391 1588 391
Q 1994 391 2212 530
Q 2431 669 2431 922
Q 2431 1156 2273 1281
Q 2116 1406 1581 1522
L 1381 1569
Q 847 1681 609 1914
Q 372 2147 372 2553
Q 372 3047 722 3315
Q 1072 3584 1716 3584
Q 2034 3584 2315 3537
Q 2597 3491 2834 3397
z
" transform="scale(0.015625)"/>
       <path id="DejaVuSans-4c" d="M 603 3500
L 1178 3500
L 1178 0
L 603 0
L 603 3500
z
M 603 4863
L 1178 4863
L 1178 4134
L 603 4134
L 603 4863
z
" transform="scale(0.015625)"/>
       <path id="DejaVuSans-46" d="M 3122 3366
L 3122 2828
Q 2878 2963 2633 3030
Q 2388 3097 2138 3097
Q 1578 3097 1268 2742
Q 959 2388 959 1747
Q 959 1106 1268 751
Q 1578 397 2138 397
Q 2388 397 2633 464
Q 2878 531 3122 666
L 3122 134
Q 2881 22 2623 -34
Q 2366 -91 2075 -91
Q 1284 -91 818 406
Q 353 903 353 1747
Q 353 2603 823 3093
Q 1294 3584 2113 3584
Q 2378 3584 2631 3529
Q 2884 3475 3122 3366
z
" transform="scale(0.015625)"/>
       <path id="DejaVuSans-44" d="M 2194 1759
Q 1497 1759 1228 1600
Q 959 1441 959 1056
Q 959 750 1161 570
Q 1363 391 1709 391
Q 2188 391 2477 730
Q 2766 1069 2766 1631
L 2766 1759
L 2194 1759
z
M 3341 1997
L 3341 0
L 2766 0
L 2766 531
Q 2569 213 2275 61
Q 1981 -91 1556 -91
Q 1019 -91 701 211
Q 384 513 384 1019
Q 384 1609 779 1909
Q 1175 2209 1959 2209
L 2766 2209
L 2766 2266
Q 2766 2663 2505 2880
Q 2244 3097 1772 3097
Q 1472 3097 1187 3025
Q 903 2953 641 2809
L 641 3341
Q 956 3463 1253 3523
Q 1550 3584 1831 3584
Q 2591 3584 2966 3190
Q 3341 2797 3341 1997
z
" transform="scale(0.015625)"/>
       <path id="DejaVuSans-4f" d="M 603 4863
L 1178 4863
L 1178 0
L 603 0
L 603 4863
z
" transform="scale(0.015625)"/>
       <path id="DejaVuSans-3" transform="scale(0.015625)"/>
       <path id="DejaVuSans-57" d="M 1172 4494
L 1172 3500
L 2356 3500
L 2356 3053
L 1172 3053
L 1172 1153
Q 1172 725 1289 603
Q 1406 481 1766 481
L 2356 481
L 2356 0
L 1766 0
Q 1100 0 847 248
Q 594 497 594 1153
L 594 3053
L 172 3053
L 172 3500
L 594 3500
L 594 4494
L 1172 4494
z
" transform="scale(0.015625)"/>
       <path id="DejaVuSans-50" d="M 3328 2828
Q 3544 3216 3844 3400
Q 4144 3584 4550 3584
Q 5097 3584 5394 3201
Q 5691 2819 5691 2113
L 5691 0
L 5113 0
L 5113 2094
Q 5113 2597 4934 2840
Q 4756 3084 4391 3084
Q 3944 3084 3684 2787
Q 3425 2491 3425 1978
L 3425 0
L 2847 0
L 2847 2094
Q 2847 2600 2669 2842
Q 2491 3084 2119 3084
Q 1678 3084 1418 2786
Q 1159 2488 1159 1978
L 1159 0
L 581 0
L 581 3500
L 1159 3500
L 1159 2956
Q 1356 3278 1631 3431
Q 1906 3584 2284 3584
Q 2666 3584 2933 3390
Q 3200 3197 3328 2828
z
" transform="scale(0.015625)"/>
       <path id="DejaVuSans-48" d="M 3597 1894
L 3597 1613
L 953 1613
Q 991 1019 1311 708
Q 1631 397 2203 397
Q 2534 397 2845 478
Q 3156 559 3463 722
L 3463 178
Q 3153 47 2828 -22
Q 2503 -91 2169 -91
Q 1331 -91 842 396
Q 353 884 353 1716
Q 353 2575 817 3079
Q 1281 3584 2069 3584
Q 2775 3584 3186 3129
Q 3597 2675 3597 1894
z
M 3022 2063
Q 3016 2534 2758 2815
Q 2500 3097 2075 3097
Q 1594 3097 1305 2825
Q 1016 2553 972 2059
L 3022 2063
z
" transform="scale(0.015625)"/>
       <path id="DejaVuSans-b" d="M 1984 4856
Q 1566 4138 1362 3434
Q 1159 2731 1159 2009
Q 1159 1288 1364 580
Q 1569 -128 1984 -844
L 1484 -844
Q 1016 -109 783 600
Q 550 1309 550 2009
Q 550 2706 781 3412
Q 1013 4119 1484 4856
L 1984 4856
z
" transform="scale(0.015625)"/>
       <path id="DejaVuSans-c" d="M 513 4856
L 1013 4856
Q 1481 4119 1714 3412
Q 1947 2706 1947 2009
Q 1947 1309 1714 600
Q 1481 -109 1013 -844
L 513 -844
Q 928 -128 1133 580
Q 1338 1288 1338 2009
Q 1338 2731 1133 3434
Q 928 4138 513 4856
z
" transform="scale(0.015625)"/>
      </defs>
      <use xlink:href="#DejaVuSans-33"/>
      <use xlink:href="#DejaVuSans-4b" transform="translate(60.296875 0)"/>
      <use xlink:href="#DejaVuSans-5c" transform="translate(123.671875 0)"/>
      <use xlink:href="#DejaVuSans-56" transform="translate(182.859375 0)"/>
      <use xlink:href="#DejaVuSans-4c" transform="translate(234.953125 0)"/>
      <use xlink:href="#DejaVuSans-46" transform="translate(262.734375 0)"/>
      <use xlink:href="#DejaVuSans-44" transform="translate(317.71875 0)"/>
      <use xlink:href="#DejaVuSans-4f" transform="translate(379 0)"/>
      <use xlink:href="#DejaVuSans-3" transform="translate(406.78125 0)"/>
      <use xlink:href="#DejaVuSans-57" transform="translate(438.5625 0)"/>
      <use xlink:href="#DejaVuSans-4c" transform="translate(477.765625 0)"/>
      <use xlink:href="#DejaVuSans-50" transform="translate(505.546875 0)"/>
      <use xlink:href="#DejaVuSans-48" transform="translate(602.953125 0)"/>
      <use xlink:href="#DejaVuSans-3" transform="translate(664.484375 0)"/>
      <use xlink:href="#DejaVuSans-b" transform="translate(696.265625 0)"/>
      <use xlink:href="#DejaVuSans-56" transform="translate(735.28125 0)"/>
      <use xlink:href="#DejaVuSans-c" transform="translate(787.375 0)"/>
     </g>
    </g>
   </g>
   <g id="matplotlib.axis_2">
    <g id="ytick_1">
     <g id="line2d_15">
      <path d="M 54.200781 251.84038
L 394.998316 251.84038
" clip-path="url(#p841af9daff)" style="fill: none; stroke: #b0b0b0; stroke-opacity: 0.2; stroke-width: 0.8; stroke-linecap: square"/>
     </g>
     <g id="line2d_16">
      <defs>
       <path id="mdd09d77f4a" d="M 0 0
L -3.5 0
" style="stroke: #000000; stroke-width: 0.8"/>
      </defs>
      <g>
       <use xlink:href="#mdd09d77f4a" x="54.200781" y="251.84038" style="stroke: #000000; stroke-width: 0.8"/>
      </g>
     </g>
     <g id="text_9">
      <!-- $\mathdefault{-10^{3}}$ -->
      <g transform="translate(21.200781 256.54038) scale(0.1 -0.1)">
       <defs>
        <path id="DejaVuSans-c9c" d="M 678 2272
L 4684 2272
L 4684 1741
L 678 1741
L 678 2272
z
" transform="scale(0.015625)"/>
        <path id="DejaVuSans-16" d="M 2597 2516
Q 3050 2419 3304 2112
Q 3559 1806 3559 1356
Q 3559 666 3084 287
Q 2609 -91 1734 -91
Q 1441 -91 1130 -33
Q 819 25 488 141
L 488 750
Q 750 597 1062 519
Q 1375 441 1716 441
Q 2309 441 2620 675
Q 2931 909 2931 1356
Q 2931 1769 2642 2001
Q 2353 2234 1838 2234
L 1294 2234
L 1294 2753
L 1863 2753
Q 2328 2753 2575 2939
Q 2822 3125 2822 3475
Q 2822 3834 2567 4026
Q 2313 4219 1838 4219
Q 1578 4219 1281 4162
Q 984 4106 628 3988
L 628 4550
Q 988 4650 1302 4700
Q 1616 4750 1894 4750
Q 2613 4750 3031 4423
Q 3450 4097 3450 3541
Q 3450 3153 3228 2886
Q 3006 2619 2597 2516
z
" transform="scale(0.015625)"/>
       </defs>
       <use xlink:href="#DejaVuSans-c9c" transform="translate(0 0.746875)"/>
       <use xlink:href="#DejaVuSans-14" transform="translate(83.789062 0.746875)"/>
       <use xlink:href="#DejaVuSans-13" transform="translate(147.412109 0.746875)"/>
       <use xlink:href="#DejaVuSans-16" transform="translate(211.992188 42.046875) scale(0.7)"/>
      </g>
     </g>
    </g>
    <g id="ytick_2">
     <g id="line2d_17">
      <path d="M 54.200781 229.27606
L 394.998316 229.27606
" clip-path="url(#p841af9daff)" style="fill: none; stroke: #b0b0b0; stroke-opacity: 0.2; stroke-width: 0.8; stroke-linecap: square"/>
     </g>
     <g id="line2d_18">
      <g>
       <use xlink:href="#mdd09d77f4a" x="54.200781" y="229.27606" style="stroke: #000000; stroke-width: 0.8"/>
      </g>
     </g>
     <g id="text_10">
      <!-- $\mathdefault{-10^{2}}$ -->
      <g transform="translate(21.200781 233.97606) scale(0.1 -0.1)">
       <use xlink:href="#DejaVuSans-c9c" transform="translate(0 0.746875)"/>
       <use xlink:href="#DejaVuSans-14" transform="translate(83.789062 0.746875)"/>
       <use xlink:href="#DejaVuSans-13" transform="translate(147.412109 0.746875)"/>
       <use xlink:href="#DejaVuSans-15" transform="translate(211.992188 42.046875) scale(0.7)"/>
      </g>
     </g>
    </g>
    <g id="ytick_3">
     <g id="line2d_19">
      <path d="M 54.200781 206.71174
L 394.998316 206.71174
" clip-path="url(#p841af9daff)" style="fill: none; stroke: #b0b0b0; stroke-opacity: 0.2; stroke-width: 0.8; stroke-linecap: square"/>
     </g>
     <g id="line2d_20">
      <g>
       <use xlink:href="#mdd09d77f4a" x="54.200781" y="206.71174" style="stroke: #000000; stroke-width: 0.8"/>
      </g>
     </g>
     <g id="text_11">
      <!-- $\mathdefault{-10^{1}}$ -->
      <g transform="translate(21.200781 211.36174) scale(0.1 -0.1)">
       <use xlink:href="#DejaVuSans-c9c" transform="translate(0 0.665625)"/>
       <use xlink:href="#DejaVuSans-14" transform="translate(83.789062 0.665625)"/>
       <use xlink:href="#DejaVuSans-13" transform="translate(147.412109 0.665625)"/>
       <use xlink:href="#DejaVuSans-14" transform="translate(211.992188 41.965625) scale(0.7)"/>
      </g>
     </g>
    </g>
    <g id="ytick_4">
     <g id="line2d_21">
      <path d="M 54.200781 184.147419
L 394.998316 184.147419
" clip-path="url(#p841af9daff)" style="fill: none; stroke: #b0b0b0; stroke-opacity: 0.2; stroke-width: 0.8; stroke-linecap: square"/>
     </g>
     <g id="line2d_22">
      <g>
       <use xlink:href="#mdd09d77f4a" x="54.200781" y="184.147419" style="stroke: #000000; stroke-width: 0.8"/>
      </g>
     </g>
     <g id="text_12">
      <!-- $\mathdefault{-10^{0}}$ -->
      <g transform="translate(21.200781 188.847419) scale(0.1 -0.1)">
       <use xlink:href="#DejaVuSans-c9c" transform="translate(0 0.746875)"/>
       <use xlink:href="#DejaVuSans-14" transform="translate(83.789062 0.746875)"/>
       <use xlink:href="#DejaVuSans-13" transform="translate(147.412109 0.746875)"/>
       <use xlink:href="#DejaVuSans-13" transform="translate(211.992188 42.046875) scale(0.7)"/>
      </g>
     </g>
    </g>
    <g id="ytick_5">
     <g id="line2d_23">
      <path d="M 54.200781 159.075953
L 394.998316 159.075953
" clip-path="url(#p841af9daff)" style="fill: none; stroke: #b0b0b0; stroke-opacity: 0.2; stroke-width: 0.8; stroke-linecap: square"/>
     </g>
     <g id="line2d_24">
      <g>
       <use xlink:href="#mdd09d77f4a" x="54.200781" y="159.075953" style="stroke: #000000; stroke-width: 0.8"/>
      </g>
     </g>
     <g id="text_13">
      <!-- $\mathdefault{0}$ -->
      <g transform="translate(40.800781 162.874781) scale(0.1 -0.1)">
       <use xlink:href="#DejaVuSans-13" transform="translate(0 0.78125)"/>
      </g>
     </g>
    </g>
    <g id="ytick_6">
     <g id="line2d_25">
      <path d="M 54.200781 134.004486
L 394.998316 134.004486
" clip-path="url(#p841af9daff)" style="fill: none; stroke: #b0b0b0; stroke-opacity: 0.2; stroke-width: 0.8; stroke-linecap: square"/>
     </g>
     <g id="line2d_26">
      <g>
       <use xlink:href="#mdd09d77f4a" x="54.200781" y="134.004486" style="stroke: #000000; stroke-width: 0.8"/>
      </g>
     </g>
     <g id="text_14">
      <!-- $\mathdefault{10^{0}}$ -->
      <g transform="translate(29.600781 138.704486) scale(0.1 -0.1)">
       <use xlink:href="#DejaVuSans-14" transform="translate(0 0.746875)"/>
       <use xlink:href="#DejaVuSans-13" transform="translate(63.623047 0.746875)"/>
       <use xlink:href="#DejaVuSans-13" transform="translate(128.203125 42.046875) scale(0.7)"/>
      </g>
     </g>
    </g>
    <g id="ytick_7">
     <g id="line2d_27">
      <path d="M 54.200781 111.440166
L 394.998316 111.440166
" clip-path="url(#p841af9daff)" style="fill: none; stroke: #b0b0b0; stroke-opacity: 0.2; stroke-width: 0.8; stroke-linecap: square"/>
     </g>
     <g id="line2d_28">
      <g>
       <use xlink:href="#mdd09d77f4a" x="54.200781" y="111.440166" style="stroke: #000000; stroke-width: 0.8"/>
      </g>
     </g>
     <g id="text_15">
      <!-- $\mathdefault{10^{1}}$ -->
      <g transform="translate(29.600781 116.090166) scale(0.1 -0.1)">
       <use xlink:href="#DejaVuSans-14" transform="translate(0 0.665625)"/>
       <use xlink:href="#DejaVuSans-13" transform="translate(63.623047 0.665625)"/>
       <use xlink:href="#DejaVuSans-14" transform="translate(128.203125 41.965625) scale(0.7)"/>
      </g>
     </g>
    </g>
    <g id="ytick_8">
     <g id="line2d_29">
      <path d="M 54.200781 88.875845
L 394.998316 88.875845
" clip-path="url(#p841af9daff)" style="fill: none; stroke: #b0b0b0; stroke-opacity: 0.2; stroke-width: 0.8; stroke-linecap: square"/>
     </g>
     <g id="line2d_30">
      <g>
       <use xlink:href="#mdd09d77f4a" x="54.200781" y="88.875845" style="stroke: #000000; stroke-width: 0.8"/>
      </g>
     </g>
     <g id="text_16">
      <!-- $\mathdefault{10^{2}}$ -->
      <g transform="translate(29.600781 93.575845) scale(0.1 -0.1)">
       <use xlink:href="#DejaVuSans-14" transform="translate(0 0.746875)"/>
       <use xlink:href="#DejaVuSans-13" transform="translate(63.623047 0.746875)"/>
       <use xlink:href="#DejaVuSans-15" transform="translate(128.203125 42.046875) scale(0.7)"/>
      </g>
     </g>
    </g>
    <g id="ytick_9">
     <g id="line2d_31">
      <path d="M 54.200781 66.311525
L 394.998316 66.311525
" clip-path="url(#p841af9daff)" style="fill: none; stroke: #b0b0b0; stroke-opacity: 0.2; stroke-width: 0.8; stroke-linecap: square"/>
     </g>
     <g id="line2d_32">
      <g>
       <use xlink:href="#mdd09d77f4a" x="54.200781" y="66.311525" style="stroke: #000000; stroke-width: 0.8"/>
      </g>
     </g>
     <g id="text_17">
      <!-- $\mathdefault{10^{3}}$ -->
      <g transform="translate(29.600781 71.011525) scale(0.1 -0.1)">
       <use xlink:href="#DejaVuSans-14" transform="translate(0 0.746875)"/>
       <use xlink:href="#DejaVuSans-13" transform="translate(63.623047 0.746875)"/>
       <use xlink:href="#DejaVuSans-16" transform="translate(128.203125 42.046875) scale(0.7)"/>
      </g>
     </g>
    </g>
    <g id="text_18">
     <!-- Position -->
     <g transform="translate(14.798438 175.359422) rotate(-90) scale(0.1 -0.1)">
      <defs>
       <path id="DejaVuSans-52" d="M 1959 3097
Q 1497 3097 1228 2736
Q 959 2375 959 1747
Q 959 1119 1226 758
Q 1494 397 1959 397
Q 2419 397 2687 759
Q 2956 1122 2956 1747
Q 2956 2369 2687 2733
Q 2419 3097 1959 3097
z
M 1959 3584
Q 2709 3584 3137 3096
Q 3566 2609 3566 1747
Q 3566 888 3137 398
Q 2709 -91 1959 -91
Q 1206 -91 779 398
Q 353 888 353 1747
Q 353 2609 779 3096
Q 1206 3584 1959 3584
z
" transform="scale(0.015625)"/>
       <path id="DejaVuSans-51" d="M 3513 2113
L 3513 0
L 2938 0
L 2938 2094
Q 2938 2591 2744 2837
Q 2550 3084 2163 3084
Q 1697 3084 1428 2787
Q 1159 2491 1159 1978
L 1159 0
L 581 0
L 581 3500
L 1159 3500
L 1159 2956
Q 1366 3272 1645 3428
Q 1925 3584 2291 3584
Q 2894 3584 3203 3211
Q 3513 2838 3513 2113
z
" transform="scale(0.015625)"/>
      </defs>
      <use xlink:href="#DejaVuSans-33"/>
      <use xlink:href="#DejaVuSans-52" transform="translate(56.734375 0)"/>
      <use xlink:href="#DejaVuSans-56" transform="translate(117.921875 0)"/>
      <use xlink:href="#DejaVuSans-4c" transform="translate(170.015625 0)"/>
      <use xlink:href="#DejaVuSans-57" transform="translate(197.796875 0)"/>
      <use xlink:href="#DejaVuSans-4c" transform="translate(237 0)"/>
      <use xlink:href="#DejaVuSans-52" transform="translate(264.78125 0)"/>
      <use xlink:href="#DejaVuSans-51" transform="translate(325.96875 0)"/>
     </g>
    </g>
   </g>
   <g id="line2d_33">
    <path d="M 69.691578 134.004486
L 72.273378 135.474245
L 74.855177 139.371067
L 77.436977 144.726227
L 80.018776 150.607812
L 82.600576 156.221067
L 85.182375 160.971477
L 87.764175 164.491174
L 90.345974 166.63342
L 92.927774 167.442597
L 95.509573 167.10839
L 98.091373 165.912856
L 100.673172 164.178029
L 103.254972 162.220029
L 105.836771 160.31363
L 108.418571 158.669153
L 111.00037 157.42177
L 113.58217 156.631797
L 116.163969 156.293621
L 118.745769 156.350375
L 121.327568 156.711449
L 123.909368 157.270181
L 126.491167 157.91966
L 129.072967 158.565185
L 131.654766 159.132663
L 134.236566 159.572824
L 136.818365 159.86166
L 139.400165 159.997837
L 141.981964 159.998026
L 144.563764 159.891138
L 147.145563 159.712361
L 149.727363 159.497744
L 152.309162 159.279825
L 154.890962 159.084603
L 157.472761 158.929911
L 160.054561 158.825084
L 162.63636 158.771681
L 165.21816 158.764961
L 167.799959 158.795771
L 170.381759 158.852551
L 172.963558 158.923183
L 175.545358 158.996522
L 178.127157 159.063479
L 180.708957 159.117638
L 183.290756 159.155435
L 185.872556 159.175965
L 188.454355 159.180516
L 191.036155 159.171962
L 193.617954 159.154082
L 196.199754 159.130937
L 198.781553 159.106333
L 201.363353 159.083437
L 203.945152 159.064544
L 206.526952 159.050994
L 209.108751 159.043225
L 211.690551 159.040908
L 214.27235 159.043151
L 216.85415 159.048726
L 219.43595 159.056274
L 222.017749 159.064501
L 224.599549 159.072307
L 227.181348 159.078876
L 229.763148 159.083707
L 232.344947 159.086611
L 234.926747 159.087659
L 237.508546 159.087126
L 240.090346 159.085409
L 242.672145 159.082959
L 245.253945 159.080218
L 247.835744 159.077564
L 250.417544 159.075288
L 252.999343 159.073574
L 255.581143 159.0725
L 258.162942 159.072055
L 260.744742 159.072158
L 263.326541 159.072679
L 265.908341 159.073469
L 268.49014 159.07438
L 271.07194 159.075279
L 273.653739 159.076065
L 276.235539 159.076671
L 278.817338 159.077065
L 281.399138 159.077245
L 283.980937 159.077237
L 286.562737 159.077082
L 289.144536 159.076829
L 291.726336 159.076528
L 294.308135 159.076224
L 296.889935 159.075953
L 299.471734 159.07574
L 302.053534 159.075597
L 304.635333 159.075525
L 307.217133 159.075519
L 309.798932 159.075564
L 312.380732 159.075645
L 314.962531 159.075744
L 317.544331 159.075846
L 320.12613 159.075939
L 322.70793 159.076014
L 325.289729 159.076066
L 327.871529 159.076093
L 330.453328 159.076099
L 333.035128 159.076086
L 335.616927 159.07606
L 338.198727 159.076028
L 340.780526 159.075993
L 343.362326 159.075962
L 345.944125 159.075936
L 348.525925 159.075917
L 351.107724 159.075907
L 353.689524 159.075904
L 356.271323 159.075907
L 358.853123 159.075915
L 361.434922 159.075926
L 364.016722 159.075937
L 366.598521 159.075948
L 369.180321 159.075957
L 371.76212 159.075964
L 374.34392 159.075968
L 376.925719 159.075969
L 379.507519 159.075968
" clip-path="url(#p841af9daff)" style="fill: none; stroke: #1f77b4; stroke-width: 1.5; stroke-linecap: square"/>
   </g>
   <g id="line2d_34">
    <defs>
     <path id="m9909462f65" d="M 0 0.75
C 0.198902 0.75 0.389685 0.670975 0.53033 0.53033
C 0.670975 0.389685 0.75 0.198902 0.75 0
C 0.75 -0.198902 0.670975 -0.389685 0.53033 -0.53033
C 0.389685 -0.670975 0.198902 -0.75 0 -0.75
C -0.198902 -0.75 -0.389685 -0.670975 -0.53033 -0.53033
C -0.670975 -0.389685 -0.75 -0.198902 -0.75 0
C -0.75 0.198902 -0.670975 0.389685 -0.53033 0.53033
C -0.389685 0.670975 -0.198902 0.75 0 0.75
z
" style="stroke: #1f77b4"/>
    </defs>
    <g clip-path="url(#p841af9daff)">
     <use xlink:href="#m9909462f65" x="69.691578" y="134.004486" style="fill: #1f77b4; stroke: #1f77b4"/>
     <use xlink:href="#m9909462f65" x="90.345974" y="166.63342" style="fill: #1f77b4; stroke: #1f77b4"/>
     <use xlink:href="#m9909462f65" x="111.00037" y="157.42177" style="fill: #1f77b4; stroke: #1f77b4"/>
     <use xlink:href="#m9909462f65" x="131.654766" y="159.132663" style="fill: #1f77b4; stroke: #1f77b4"/>
     <use xlink:href="#m9909462f65" x="152.309162" y="159.279825" style="fill: #1f77b4; stroke: #1f77b4"/>
     <use xlink:href="#m9909462f65" x="172.963558" y="158.923183" style="fill: #1f77b4; stroke: #1f77b4"/>
     <use xlink:href="#m9909462f65" x="193.617954" y="159.154082" style="fill: #1f77b4; stroke: #1f77b4"/>
     <use xlink:href="#m9909462f65" x="214.27235" y="159.043151" style="fill: #1f77b4; stroke: #1f77b4"/>
     <use xlink:href="#m9909462f65" x="234.926747" y="159.087659" style="fill: #1f77b4; stroke: #1f77b4"/>
     <use xlink:href="#m9909462f65" x="255.581143" y="159.0725" style="fill: #1f77b4; stroke: #1f77b4"/>
     <use xlink:href="#m9909462f65" x="276.235539" y="159.076671" style="fill: #1f77b4; stroke: #1f77b4"/>
     <use xlink:href="#m9909462f65" x="296.889935" y="159.075953" style="fill: #1f77b4; stroke: #1f77b4"/>
     <use xlink:href="#m9909462f65" x="317.544331" y="159.075846" style="fill: #1f77b4; stroke: #1f77b4"/>
     <use xlink:href="#m9909462f65" x="338.198727" y="159.076028" style="fill: #1f77b4; stroke: #1f77b4"/>
     <use xlink:href="#m9909462f65" x="358.853123" y="159.075915" style="fill: #1f77b4; stroke: #1f77b4"/>
     <use xlink:href="#m9909462f65" x="379.507519" y="159.075968" style="fill: #1f77b4; stroke: #1f77b4"/>
    </g>
   </g>
   <g id="line2d_35">
    <path d="M 69.691578 134.004486
L 72.273378 134.494405
L 74.855177 136.886802
L 77.436977 141.825107
L 80.018776 148.490859
L 82.600576 155.749969
L 85.182375 162.504215
L 87.764175 167.868187
L 90.345974 171.270602
L 92.927774 172.493751
L 95.509573 171.657005
L 98.091373 169.154782
L 100.673172 165.563944
L 103.254972 161.537826
L 105.836771 157.703667
L 108.418571 154.577485
L 111.00037 152.506077
L 113.58217 151.640703
L 116.163969 151.941936
L 118.745769 153.210796
L 121.327568 155.138259
L 123.909368 157.363675
L 126.491167 159.532651
L 129.072967 161.346284
L 131.654766 162.595958
L 134.236566 163.180711
L 136.818365 163.107071
L 139.400165 162.473719
L 141.981964 161.445192
L 144.563764 160.219801
L 147.145563 158.997086
L 149.727363 157.949455
L 152.309162 157.201458
L 154.890962 156.818613
L 157.472761 156.806054
L 160.054561 157.115909
L 162.63636 157.661167
L 165.21816 158.333223
L 167.799959 159.020117
L 170.381759 159.622802
L 172.963558 160.067413
L 175.545358 160.31232
L 178.127157 160.349695
L 180.708957 160.202083
L 183.290756 159.915144
L 185.872556 159.548102
L 188.454355 159.163559
L 191.036155 158.818196
L 193.617954 158.555559
L 196.199754 158.401666
L 198.781553 158.363682
L 201.363353 158.431432
L 203.945152 158.581167
L 206.526952 158.780738
L 209.108751 158.995263
L 211.690551 159.192427
L 214.27235 159.346698
L 216.85415 159.442029
L 219.43595 159.472852
L 222.017749 159.443462
L 224.599549 159.366085
L 227.181348 159.258087
L 229.763148 159.138835
L 232.344947 159.026686
L 234.926747 158.936536
L 237.508546 158.878172
L 240.090346 158.855579
L 242.672145 158.867153
L 245.253945 158.906678
L 247.835744 158.964822
L 250.417544 159.030873
L 252.999343 159.094437
L 255.581143 159.146867
L 258.162942 159.182247
L 260.744742 159.197864
L 263.326541 159.194162
L 265.908341 159.174253
L 268.49014 159.143124
L 271.07194 159.106678
L 273.653739 159.070777
L 276.235539 159.040421
L 278.817338 159.019155
L 281.399138 159.008766
L 283.980937 159.009263
L 286.562737 159.019117
L 289.144536 159.03568
L 291.726336 159.055713
L 294.308135 159.075919
L 296.889935 159.093421
L 299.471734 159.106108
L 302.053534 159.112834
L 304.635333 159.113446
L 307.217133 159.108678
L 309.798932 159.099926
L 312.380732 159.08896
L 314.962531 159.077626
L 317.544331 159.067575
L 320.12613 159.060056
L 322.70793 159.055791
L 325.289729 159.054947
L 327.871529 159.057183
L 330.453328 159.061772
L 333.035128 159.06775
L 335.616927 159.074085
L 338.198727 159.079834
L 340.780526 159.084264
L 343.362326 159.086926
L 345.944125 159.08768
L 348.525925 159.086676
L 351.107724 159.084292
L 353.689524 159.081049
L 356.271323 159.07752
L 358.853123 159.074244
L 361.434922 159.071648
L 364.016722 159.070008
L 366.598521 159.069428
L 369.180321 159.069848
L 371.76212 159.071074
L 374.34392 159.072825
L 376.925719 159.074783
L 379.507519 159.076644
" clip-path="url(#p841af9daff)" style="fill: none; stroke: #ff7f0e; stroke-width: 1.5; stroke-linecap: square"/>
   </g>
   <g id="line2d_36">
    <defs>
     <path id="md18fa2bb7c" d="M 0 0.75
C 0.198902 0.75 0.389685 0.670975 0.53033 0.53033
C 0.670975 0.389685 0.75 0.198902 0.75 0
C 0.75 -0.198902 0.670975 -0.389685 0.53033 -0.53033
C 0.389685 -0.670975 0.198902 -0.75 0 -0.75
C -0.198902 -0.75 -0.389685 -0.670975 -0.53033 -0.53033
C -0.670975 -0.389685 -0.75 -0.198902 -0.75 0
C -0.75 0.198902 -0.670975 0.389685 -0.53033 0.53033
C -0.389685 0.670975 -0.198902 0.75 0 0.75
z
" style="stroke: #ff7f0e"/>
    </defs>
    <g clip-path="url(#p841af9daff)">
     <use xlink:href="#md18fa2bb7c" x="69.691578" y="134.004486" style="fill: #ff7f0e; stroke: #ff7f0e"/>
     <use xlink:href="#md18fa2bb7c" x="90.345974" y="171.270602" style="fill: #ff7f0e; stroke: #ff7f0e"/>
     <use xlink:href="#md18fa2bb7c" x="111.00037" y="152.506077" style="fill: #ff7f0e; stroke: #ff7f0e"/>
     <use xlink:href="#md18fa2bb7c" x="131.654766" y="162.595958" style="fill: #ff7f0e; stroke: #ff7f0e"/>
     <use xlink:href="#md18fa2bb7c" x="152.309162" y="157.201458" style="fill: #ff7f0e; stroke: #ff7f0e"/>
     <use xlink:href="#md18fa2bb7c" x="172.963558" y="160.067413" style="fill: #ff7f0e; stroke: #ff7f0e"/>
     <use xlink:href="#md18fa2bb7c" x="193.617954" y="158.555559" style="fill: #ff7f0e; stroke: #ff7f0e"/>
     <use xlink:href="#md18fa2bb7c" x="214.27235" y="159.346698" style="fill: #ff7f0e; stroke: #ff7f0e"/>
     <use xlink:href="#md18fa2bb7c" x="234.926747" y="158.936536" style="fill: #ff7f0e; stroke: #ff7f0e"/>
     <use xlink:href="#md18fa2bb7c" x="255.581143" y="159.146867" style="fill: #ff7f0e; stroke: #ff7f0e"/>
     <use xlink:href="#md18fa2bb7c" x="276.235539" y="159.040421" style="fill: #ff7f0e; stroke: #ff7f0e"/>
     <use xlink:href="#md18fa2bb7c" x="296.889935" y="159.093421" style="fill: #ff7f0e; stroke: #ff7f0e"/>
     <use xlink:href="#md18fa2bb7c" x="317.544331" y="159.067575" style="fill: #ff7f0e; stroke: #ff7f0e"/>
     <use xlink:href="#md18fa2bb7c" x="338.198727" y="159.079834" style="fill: #ff7f0e; stroke: #ff7f0e"/>
     <use xlink:href="#md18fa2bb7c" x="358.853123" y="159.074244" style="fill: #ff7f0e; stroke: #ff7f0e"/>
     <use xlink:href="#md18fa2bb7c" x="379.507519" y="159.076644" style="fill: #ff7f0e; stroke: #ff7f0e"/>
    </g>
   </g>
   <g id="line2d_37">
    <path d="M 69.691578 134.004486
L 72.273378 134.494405
L 74.855177 135.906963
L 77.436977 138.13377
L 80.018776 141.041243
L 82.600576 145.45708
L 85.182375 151.969368
L 87.764175 159.952147
L 90.345974 168.712747
L 92.927774 177.536702
L 95.509573 184.66384
L 98.091373 186.676193
L 100.673172 187.574805
L 103.254972 187.424693
L 105.836771 186.026792
L 108.418571 180.61053
L 111.00037 168.012392
L 113.58217 152.567891
L 116.163969 135.64737
L 118.745769 129.405085
L 121.327568 126.390534
L 123.909368 124.705049
L 126.491167 124.083391
L 129.072967 124.534337
L 131.654766 126.350672
L 134.236566 130.546558
L 136.818365 149.328066
L 139.400165 180.122732
L 141.981964 191.639635
L 144.563764 196.132758
L 147.145563 198.745057
L 149.727363 200.135334
L 152.309162 200.482199
L 154.890962 199.712756
L 157.472761 197.418111
L 160.054561 192.127477
L 162.63636 162.794473
L 165.21816 125.918443
L 167.799959 118.632808
L 170.381759 114.758915
L 172.963558 112.507366
L 175.545358 111.400614
L 178.127157 111.333371
L 180.708957 112.447652
L 183.290756 115.307258
L 185.872556 122.158791
L 188.454355 182.025071
L 191.036155 201.18502
L 193.617954 207.185855
L 196.199754 210.543416
L 198.781553 212.464797
L 201.363353 213.294955
L 203.945152 213.073242
L 206.526952 211.578293
L 209.108751 208.028754
L 211.690551 198.681623
L 214.27235 120.066553
L 216.85415 108.531962
L 219.43595 103.469964
L 222.017749 100.556112
L 224.599549 98.942558
L 227.181348 98.386398
L 229.763148 98.911542
L 232.344947 100.835876
L 234.926747 105.263964
L 237.508546 119.619221
L 240.090346 209.040411
L 242.672145 217.702657
L 245.253945 222.03613
L 247.835744 224.558835
L 250.417544 225.880422
L 252.999343 226.161007
L 255.581143 225.311795
L 258.162942 222.891063
L 260.744742 217.280399
L 263.326541 159.462685
L 265.908341 99.560916
L 268.49014 92.625472
L 271.07194 88.883077
L 273.653739 86.712934
L 276.235539 85.672801
L 278.817338 85.673641
L 281.399138 86.875293
L 283.980937 89.886697
L 286.562737 97.221469
L 289.144536 211.69433
L 291.726336 227.397709
L 294.308135 233.149153
L 296.889935 236.394864
L 299.471734 238.240852
L 302.053534 239.005397
L 304.635333 238.712637
L 307.217133 237.119999
L 309.798932 233.380677
L 312.380732 223.17988
L 314.962531 93.093673
L 317.544331 82.414894
L 320.12613 77.542848
L 322.70793 74.726729
L 325.289729 73.184234
L 327.871529 72.693686
L 330.453328 73.294204
L 333.035128 75.330328
L 335.616927 80.007534
L 338.198727 96.553015
L 340.780526 235.572838
L 343.362326 243.751013
L 345.944125 247.932577
L 348.525925 250.367877
L 351.107724 251.621373
L 353.689524 251.835345
L 356.271323 250.904753
L 358.853123 248.352607
L 361.434922 242.392238
L 364.016722 101.385898
L 366.598521 73.24455
L 369.180321 66.629553
L 371.76212 63.013323
L 374.34392 60.922972
L 376.925719 59.949124
L 379.507519 60.018644
" clip-path="url(#p841af9daff)" style="fill: none; stroke: #2ca02c; stroke-width: 1.5; stroke-linecap: square"/>
   </g>
   <g id="line2d_38">
    <defs>
     <path id="md33362fd43" d="M 0 0.75
C 0.198902 0.75 0.389685 0.670975 0.53033 0.53033
C 0.670975 0.389685 0.75 0.198902 0.75 0
C 0.75 -0.198902 0.670975 -0.389685 0.53033 -0.53033
C 0.389685 -0.670975 0.198902 -0.75 0 -0.75
C -0.198902 -0.75 -0.389685 -0.670975 -0.53033 -0.53033
C -0.670975 -0.389685 -0.75 -0.198902 -0.75 0
C -0.75 0.198902 -0.670975 0.389685 -0.53033 0.53033
C -0.389685 0.670975 -0.198902 0.75 0 0.75
z
" style="stroke: #2ca02c"/>
    </defs>
    <g clip-path="url(#p841af9daff)">
     <use xlink:href="#md33362fd43" x="69.691578" y="134.004486" style="fill: #2ca02c; stroke: #2ca02c"/>
     <use xlink:href="#md33362fd43" x="90.345974" y="168.712747" style="fill: #2ca02c; stroke: #2ca02c"/>
     <use xlink:href="#md33362fd43" x="111.00037" y="168.012392" style="fill: #2ca02c; stroke: #2ca02c"/>
     <use xlink:href="#md33362fd43" x="131.654766" y="126.350672" style="fill: #2ca02c; stroke: #2ca02c"/>
     <use xlink:href="#md33362fd43" x="152.309162" y="200.482199" style="fill: #2ca02c; stroke: #2ca02c"/>
     <use xlink:href="#md33362fd43" x="172.963558" y="112.507366" style="fill: #2ca02c; stroke: #2ca02c"/>
     <use xlink:href="#md33362fd43" x="193.617954" y="207.185855" style="fill: #2ca02c; stroke: #2ca02c"/>
     <use xlink:href="#md33362fd43" x="214.27235" y="120.066553" style="fill: #2ca02c; stroke: #2ca02c"/>
     <use xlink:href="#md33362fd43" x="234.926747" y="105.263964" style="fill: #2ca02c; stroke: #2ca02c"/>
     <use xlink:href="#md33362fd43" x="255.581143" y="225.311795" style="fill: #2ca02c; stroke: #2ca02c"/>
     <use xlink:href="#md33362fd43" x="276.235539" y="85.672801" style="fill: #2ca02c; stroke: #2ca02c"/>
     <use xlink:href="#md33362fd43" x="296.889935" y="236.394864" style="fill: #2ca02c; stroke: #2ca02c"/>
     <use xlink:href="#md33362fd43" x="317.544331" y="82.414894" style="fill: #2ca02c; stroke: #2ca02c"/>
     <use xlink:href="#md33362fd43" x="338.198727" y="96.553015" style="fill: #2ca02c; stroke: #2ca02c"/>
     <use xlink:href="#md33362fd43" x="358.853123" y="248.352607" style="fill: #2ca02c; stroke: #2ca02c"/>
     <use xlink:href="#md33362fd43" x="379.507519" y="60.018644" style="fill: #2ca02c; stroke: #2ca02c"/>
    </g>
   </g>
   <g id="patch_3">
    <path d="M 54.200781 261.429656
L 54.200781 50.354813
" style="fill: none; stroke: #000000; stroke-width: 0.8; stroke-linejoin: miter; stroke-linecap: square"/>
   </g>
   <g id="patch_4">
    <path d="M 394.998316 261.429656
L 394.998316 50.354813
" style="fill: none; stroke: #000000; stroke-width: 0.8; stroke-linejoin: miter; stroke-linecap: square"/>
   </g>
   <g id="patch_5">
    <path d="M 54.200781 261.429656
L 394.998316 261.429656
" style="fill: none; stroke: #000000; stroke-width: 0.8; stroke-linejoin: miter; stroke-linecap: square"/>
   </g>
   <g id="patch_6">
    <path d="M 54.200781 50.354813
L 394.998316 50.354813
" style="fill: none; stroke: #000000; stroke-width: 0.8; stroke-linejoin: miter; stroke-linecap: square"/>
   </g>
   <g id="text_19">
    <!-- Event simulation and analytical samples -->
    <g transform="translate(103.242049 44.354813) scale(0.12 -0.12)">
     <defs>
      <path id="DejaVuSans-28" d="M 628 4666
L 3578 4666
L 3578 4134
L 1259 4134
L 1259 2753
L 3481 2753
L 3481 2222
L 1259 2222
L 1259 531
L 3634 531
L 3634 0
L 628 0
L 628 4666
z
" transform="scale(0.015625)"/>
      <path id="DejaVuSans-59" d="M 191 3500
L 800 3500
L 1894 563
L 2988 3500
L 3597 3500
L 2284 0
L 1503 0
L 191 3500
z
" transform="scale(0.015625)"/>
      <path id="DejaVuSans-58" d="M 544 1381
L 544 3500
L 1119 3500
L 1119 1403
Q 1119 906 1312 657
Q 1506 409 1894 409
Q 2359 409 2629 706
Q 2900 1003 2900 1516
L 2900 3500
L 3475 3500
L 3475 0
L 2900 0
L 2900 538
Q 2691 219 2414 64
Q 2138 -91 1772 -91
Q 1169 -91 856 284
Q 544 659 544 1381
z
M 1991 3584
L 1991 3584
z
" transform="scale(0.015625)"/>
      <path id="DejaVuSans-47" d="M 2906 2969
L 2906 4863
L 3481 4863
L 3481 0
L 2906 0
L 2906 525
Q 2725 213 2448 61
Q 2172 -91 1784 -91
Q 1150 -91 751 415
Q 353 922 353 1747
Q 353 2572 751 3078
Q 1150 3584 1784 3584
Q 2172 3584 2448 3432
Q 2725 3281 2906 2969
z
M 947 1747
Q 947 1113 1208 752
Q 1469 391 1925 391
Q 2381 391 2643 752
Q 2906 1113 2906 1747
Q 2906 2381 2643 2742
Q 2381 3103 1925 3103
Q 1469 3103 1208 2742
Q 947 2381 947 1747
z
" transform="scale(0.015625)"/>
      <path id="DejaVuSans-53" d="M 1159 525
L 1159 -1331
L 581 -1331
L 581 3500
L 1159 3500
L 1159 2969
Q 1341 3281 1617 3432
Q 1894 3584 2278 3584
Q 2916 3584 3314 3078
Q 3713 2572 3713 1747
Q 3713 922 3314 415
Q 2916 -91 2278 -91
Q 1894 -91 1617 61
Q 1341 213 1159 525
z
M 3116 1747
Q 3116 2381 2855 2742
Q 2594 3103 2138 3103
Q 1681 3103 1420 2742
Q 1159 2381 1159 1747
Q 1159 1113 1420 752
Q 1681 391 2138 391
Q 2594 391 2855 752
Q 3116 1113 3116 1747
z
" transform="scale(0.015625)"/>
     </defs>
     <use xlink:href="#DejaVuSans-28"/>
     <use xlink:href="#DejaVuSans-59" transform="translate(63.1875 0)"/>
     <use xlink:href="#DejaVuSans-48" transform="translate(122.375 0)"/>
     <use xlink:href="#DejaVuSans-51" transform="translate(183.90625 0)"/>
     <use xlink:href="#DejaVuSans-57" transform="translate(247.28125 0)"/>
     <use xlink:href="#DejaVuSans-3" transform="translate(286.484375 0)"/>
     <use xlink:href="#DejaVuSans-56" transform="translate(318.265625 0)"/>
     <use xlink:href="#DejaVuSans-4c" transform="translate(370.359375 0)"/>
     <use xlink:href="#DejaVuSans-50" transform="translate(398.140625 0)"/>
     <use xlink:href="#DejaVuSans-58" transform="translate(495.546875 0)"/>
     <use xlink:href="#DejaVuSans-4f" transform="translate(558.921875 0)"/>
     <use xlink:href="#DejaVuSans-44" transform="translate(586.703125 0)"/>
     <use xlink:href="#DejaVuSans-57" transform="translate(647.984375 0)"/>
     <use xlink:href="#DejaVuSans-4c" transform="translate(687.1875 0)"/>
     <use xlink:href="#DejaVuSans-52" transform="translate(714.96875 0)"/>
     <use xlink:href="#DejaVuSans-51" transform="translate(776.15625 0)"/>
     <use xlink:href="#DejaVuSans-3" transform="translate(839.53125 0)"/>
     <use xlink:href="#DejaVuSans-44" transform="translate(871.3125 0)"/>
     <use xlink:href="#DejaVuSans-51" transform="translate(932.59375 0)"/>
     <use xlink:href="#DejaVuSans-47" transform="translate(995.96875 0)"/>
     <use xlink:href="#DejaVuSans-3" transform="translate(1059.453125 0)"/>
     <use xlink:href="#DejaVuSans-44" transform="translate(1091.234375 0)"/>
     <use xlink:href="#DejaVuSans-51" transform="translate(1152.515625 0)"/>
     <use xlink:href="#DejaVuSans-44" transform="translate(1215.890625 0)"/>
     <use xlink:href="#DejaVuSans-4f" transform="translate(1277.171875 0)"/>
     <use xlink:href="#DejaVuSans-5c" transform="translate(1304.953125 0)"/>
     <use xlink:href="#DejaVuSans-57" transform="translate(1364.140625 0)"/>
     <use xlink:href="#DejaVuSans-4c" transform="translate(1403.34375 0)"/>
     <use xlink:href="#DejaVuSans-46" transform="translate(1431.125 0)"/>
     <use xlink:href="#DejaVuSans-44" transform="translate(1486.109375 0)"/>
     <use xlink:href="#DejaVuSans-4f" transform="translate(1547.390625 0)"/>
     <use xlink:href="#DejaVuSans-3" transform="translate(1575.171875 0)"/>
     <use xlink:href="#DejaVuSans-56" transform="translate(1606.953125 0)"/>
     <use xlink:href="#DejaVuSans-44" transform="translate(1659.046875 0)"/>
     <use xlink:href="#DejaVuSans-50" transform="translate(1720.328125 0)"/>
     <use xlink:href="#DejaVuSans-53" transform="translate(1817.734375 0)"/>
     <use xlink:href="#DejaVuSans-4f" transform="translate(1881.21875 0)"/>
     <use xlink:href="#DejaVuSans-48" transform="translate(1909 0)"/>
     <use xlink:href="#DejaVuSans-56" transform="translate(1970.53125 0)"/>
    </g>
   </g>
   <g id="legend_1">
    <g id="patch_7">
     <path d="M 59.800781 92.756687
L 130.318281 92.756687
Q 131.918281 92.756687 131.918281 91.156688
L 131.918281 55.954813
Q 131.918281 54.354813 130.318281 54.354813
L 59.800781 54.354813
Q 58.200781 54.354813 58.200781 55.954813
L 58.200781 91.156688
Q 58.200781 92.756687 59.800781 92.756687
z
" style="fill: #ffffff; opacity: 0.8; stroke: #cccccc; stroke-linejoin: miter"/>
    </g>
    <g id="line2d_39">
     <path d="M 61.400781 60.833563
L 69.400781 60.833563
L 77.400781 60.833563
" style="fill: none; stroke: #1f77b4; stroke-width: 1.5; stroke-linecap: square"/>
    </g>
    <g id="text_20">
     <!-- Delay 0 s -->
     <g transform="translate(83.800781 63.633563) scale(0.08 -0.08)">
      <defs>
       <path id="DejaVuSans-27" d="M 1259 4147
L 1259 519
L 2022 519
Q 2988 519 3436 956
Q 3884 1394 3884 2338
Q 3884 3275 3436 3711
Q 2988 4147 2022 4147
L 1259 4147
z
M 628 4666
L 1925 4666
Q 3281 4666 3915 4102
Q 4550 3538 4550 2338
Q 4550 1131 3912 565
Q 3275 0 1925 0
L 628 0
L 628 4666
z
" transform="scale(0.015625)"/>
      </defs>
      <use xlink:href="#DejaVuSans-27"/>
      <use xlink:href="#DejaVuSans-48" transform="translate(77 0)"/>
      <use xlink:href="#DejaVuSans-4f" transform="translate(138.53125 0)"/>
      <use xlink:href="#DejaVuSans-44" transform="translate(166.3125 0)"/>
      <use xlink:href="#DejaVuSans-5c" transform="translate(227.59375 0)"/>
      <use xlink:href="#DejaVuSans-3" transform="translate(286.78125 0)"/>
      <use xlink:href="#DejaVuSans-13" transform="translate(318.5625 0)"/>
      <use xlink:href="#DejaVuSans-3" transform="translate(382.1875 0)"/>
      <use xlink:href="#DejaVuSans-56" transform="translate(413.96875 0)"/>
     </g>
    </g>
    <g id="line2d_40">
     <path d="M 61.400781 72.834187
L 69.400781 72.834187
L 77.400781 72.834187
" style="fill: none; stroke: #ff7f0e; stroke-width: 1.5; stroke-linecap: square"/>
    </g>
    <g id="text_21">
     <!-- Delay 0.1 s -->
     <g transform="translate(83.800781 75.634187) scale(0.08 -0.08)">
      <defs>
       <path id="DejaVuSans-11" d="M 684 794
L 1344 794
L 1344 0
L 684 0
L 684 794
z
" transform="scale(0.015625)"/>
      </defs>
      <use xlink:href="#DejaVuSans-27"/>
      <use xlink:href="#DejaVuSans-48" transform="translate(77 0)"/>
      <use xlink:href="#DejaVuSans-4f" transform="translate(138.53125 0)"/>
      <use xlink:href="#DejaVuSans-44" transform="translate(166.3125 0)"/>
      <use xlink:href="#DejaVuSans-5c" transform="translate(227.59375 0)"/>
      <use xlink:href="#DejaVuSans-3" transform="translate(286.78125 0)"/>
      <use xlink:href="#DejaVuSans-13" transform="translate(318.5625 0)"/>
      <use xlink:href="#DejaVuSans-11" transform="translate(382.1875 0)"/>
      <use xlink:href="#DejaVuSans-14" transform="translate(413.96875 0)"/>
      <use xlink:href="#DejaVuSans-3" transform="translate(477.59375 0)"/>
      <use xlink:href="#DejaVuSans-56" transform="translate(509.375 0)"/>
     </g>
    </g>
    <g id="line2d_41">
     <path d="M 61.400781 84.834813
L 69.400781 84.834813
L 77.400781 84.834813
" style="fill: none; stroke: #2ca02c; stroke-width: 1.5; stroke-linecap: square"/>
    </g>
    <g id="text_22">
     <!-- Delay 0.4 s -->
     <g transform="translate(83.800781 87.634813) scale(0.08 -0.08)">
      <use xlink:href="#DejaVuSans-27"/>
      <use xlink:href="#DejaVuSans-48" transform="translate(77 0)"/>
      <use xlink:href="#DejaVuSans-4f" transform="translate(138.53125 0)"/>
      <use xlink:href="#DejaVuSans-44" transform="translate(166.3125 0)"/>
      <use xlink:href="#DejaVuSans-5c" transform="translate(227.59375 0)"/>
      <use xlink:href="#DejaVuSans-3" transform="translate(286.78125 0)"/>
      <use xlink:href="#DejaVuSans-13" transform="translate(318.5625 0)"/>
      <use xlink:href="#DejaVuSans-11" transform="translate(382.1875 0)"/>
      <use xlink:href="#DejaVuSans-17" transform="translate(413.96875 0)"/>
      <use xlink:href="#DejaVuSans-3" transform="translate(477.59375 0)"/>
      <use xlink:href="#DejaVuSans-56" transform="translate(509.375 0)"/>
     </g>
    </g>
   </g>
  </g>
  <g id="axes_2">
   <g id="patch_8">
    <path d="M 499.9442 261.429656
L 712.53514 261.429656
L 712.53514 50.354813
L 499.9442 50.354813
z
" style="fill: #ffffff"/>
   </g>
   <g id="PathCollection_1">
    <defs>
     <path id="mb3623dab92" d="M 0 2.645751
C 0.701661 2.645751 1.374679 2.366978 1.870829 1.870829
C 2.366978 1.374679 2.645751 0.701661 2.645751 0
C 2.645751 -0.701661 2.366978 -1.374679 1.870829 -1.870829
C 1.374679 -2.366978 0.701661 -2.645751 0 -2.645751
C -0.701661 -2.645751 -1.374679 -2.366978 -1.870829 -1.870829
C -2.366978 -1.374679 -2.645751 -0.701661 -2.645751 0
C -2.645751 0.701661 -2.366978 1.374679 -1.870829 1.870829
C -1.374679 2.366978 -0.701661 2.645751 0 2.645751
z
" style="stroke: #1f77b4"/>
    </defs>
    <g clip-path="url(#pc0ee34c7f2)">
     <use xlink:href="#mb3623dab92" x="685.712283" y="127.260795" style="fill: #1f77b4; stroke: #1f77b4"/>
     <use xlink:href="#mb3623dab92" x="685.712283" y="184.523674" style="fill: #1f77b4; stroke: #1f77b4"/>
    </g>
   </g>
   <g id="PathCollection_2">
    <defs>
     <path id="me2c364f9ed" d="M 0 2.645751
C 0.701661 2.645751 1.374679 2.366978 1.870829 1.870829
C 2.366978 1.374679 2.645751 0.701661 2.645751 0
C 2.645751 -0.701661 2.366978 -1.374679 1.870829 -1.870829
C 1.374679 -2.366978 0.701661 -2.645751 0 -2.645751
C -0.701661 -2.645751 -1.374679 -2.366978 -1.870829 -1.870829
C -2.366978 -1.374679 -2.645751 -0.701661 -2.645751 0
C -2.645751 0.701661 -2.366978 1.374679 -1.870829 1.870829
C -1.374679 2.366978 -0.701661 2.645751 0 2.645751
z
" style="stroke: #ff7f0e"/>
    </defs>
    <g clip-path="url(#pc0ee34c7f2)">
     <use xlink:href="#me2c364f9ed" x="688.277074" y="122.333152" style="fill: #ff7f0e; stroke: #ff7f0e"/>
     <use xlink:href="#me2c364f9ed" x="688.277074" y="189.451316" style="fill: #ff7f0e; stroke: #ff7f0e"/>
     <use xlink:href="#me2c364f9ed" x="605.541569" y="155.892234" style="fill: #ff7f0e; stroke: #ff7f0e"/>
     <use xlink:href="#me2c364f9ed" x="622.662713" y="155.892234" style="fill: #ff7f0e; stroke: #ff7f0e"/>
    </g>
   </g>
   <g id="PathCollection_3">
    <defs>
     <path id="m1ba5e7a336" d="M 0 2.645751
C 0.701661 2.645751 1.374679 2.366978 1.870829 1.870829
C 2.366978 1.374679 2.645751 0.701661 2.645751 0
C 2.645751 -0.701661 2.366978 -1.374679 1.870829 -1.870829
C 1.374679 -2.366978 0.701661 -2.645751 0 -2.645751
C -0.701661 -2.645751 -1.374679 -2.366978 -1.870829 -1.870829
C -2.366978 -1.374679 -2.645751 -0.701661 -2.645751 0
C -2.645751 0.701661 -2.366978 1.374679 -1.870829 1.870829
C -1.374679 2.366978 -0.701661 2.645751 0 2.645751
z
" style="stroke: #2ca02c"/>
    </defs>
    <g clip-path="url(#pc0ee34c7f2)">
     <use xlink:href="#m1ba5e7a336" x="702.871916" y="123.341646" style="fill: #2ca02c; stroke: #2ca02c"/>
     <use xlink:href="#m1ba5e7a336" x="702.871916" y="188.442823" style="fill: #2ca02c; stroke: #2ca02c"/>
     <use xlink:href="#m1ba5e7a336" x="548.978933" y="155.892234" style="fill: #2ca02c; stroke: #2ca02c"/>
     <use xlink:href="#m1ba5e7a336" x="599.917147" y="95.907201" style="fill: #2ca02c; stroke: #2ca02c"/>
     <use xlink:href="#m1ba5e7a336" x="599.917147" y="215.877268" style="fill: #2ca02c; stroke: #2ca02c"/>
     <use xlink:href="#m1ba5e7a336" x="661.28451" y="155.892234" style="fill: #2ca02c; stroke: #2ca02c"/>
     <use xlink:href="#m1ba5e7a336" x="605.535145" y="155.885811" style="fill: #2ca02c; stroke: #2ca02c"/>
     <use xlink:href="#m1ba5e7a336" x="605.535145" y="155.898658" style="fill: #2ca02c; stroke: #2ca02c"/>
     <use xlink:href="#m1ba5e7a336" x="605.547993" y="155.885809" style="fill: #2ca02c; stroke: #2ca02c"/>
     <use xlink:href="#m1ba5e7a336" x="605.547993" y="155.898659" style="fill: #2ca02c; stroke: #2ca02c"/>
    </g>
   </g>
   <g id="matplotlib.axis_3">
    <g id="xtick_8">
     <g id="line2d_42">
      <path d="M 509.595469 261.429656
L 509.595469 50.354813
" clip-path="url(#pc0ee34c7f2)" style="fill: none; stroke: #b0b0b0; stroke-opacity: 0.2; stroke-width: 0.8; stroke-linecap: square"/>
     </g>
     <g id="line2d_43">
      <g>
       <use xlink:href="#m5e4f4c4333" x="509.595469" y="261.429656" style="stroke: #000000; stroke-width: 0.8"/>
      </g>
     </g>
     <g id="text_23">
      <!-- −1.0 -->
      <g transform="translate(497.454063 276.027312) scale(0.1 -0.1)">
       <use xlink:href="#DejaVuSans-c9c"/>
       <use xlink:href="#DejaVuSans-14" transform="translate(83.796875 0)"/>
       <use xlink:href="#DejaVuSans-11" transform="translate(147.421875 0)"/>
       <use xlink:href="#DejaVuSans-13" transform="translate(179.203125 0)"/>
      </g>
     </g>
    </g>
    <g id="xtick_9">
     <g id="line2d_44">
      <path d="M 557.568519 261.429656
L 557.568519 50.354813
" clip-path="url(#pc0ee34c7f2)" style="fill: none; stroke: #b0b0b0; stroke-opacity: 0.2; stroke-width: 0.8; stroke-linecap: square"/>
     </g>
     <g id="line2d_45">
      <g>
       <use xlink:href="#m5e4f4c4333" x="557.568519" y="261.429656" style="stroke: #000000; stroke-width: 0.8"/>
      </g>
     </g>
     <g id="text_24">
      <!-- −0.5 -->
      <g transform="translate(545.427113 276.027312) scale(0.1 -0.1)">
       <defs>
        <path id="DejaVuSans-18" d="M 691 4666
L 3169 4666
L 3169 4134
L 1269 4134
L 1269 2991
Q 1406 3038 1543 3061
Q 1681 3084 1819 3084
Q 2600 3084 3056 2656
Q 3513 2228 3513 1497
Q 3513 744 3044 326
Q 2575 -91 1722 -91
Q 1428 -91 1123 -41
Q 819 9 494 109
L 494 744
Q 775 591 1075 516
Q 1375 441 1709 441
Q 2250 441 2565 725
Q 2881 1009 2881 1497
Q 2881 1984 2565 2268
Q 2250 2553 1709 2553
Q 1456 2553 1204 2497
Q 953 2441 691 2322
L 691 4666
z
" transform="scale(0.015625)"/>
       </defs>
       <use xlink:href="#DejaVuSans-c9c"/>
       <use xlink:href="#DejaVuSans-13" transform="translate(83.796875 0)"/>
       <use xlink:href="#DejaVuSans-11" transform="translate(147.421875 0)"/>
       <use xlink:href="#DejaVuSans-18" transform="translate(179.203125 0)"/>
      </g>
     </g>
    </g>
    <g id="xtick_10">
     <g id="line2d_46">
      <path d="M 605.541569 261.429656
L 605.541569 50.354813
" clip-path="url(#pc0ee34c7f2)" style="fill: none; stroke: #b0b0b0; stroke-opacity: 0.2; stroke-width: 0.8; stroke-linecap: square"/>
     </g>
     <g id="line2d_47">
      <g>
       <use xlink:href="#m5e4f4c4333" x="605.541569" y="261.429656" style="stroke: #000000; stroke-width: 0.8"/>
      </g>
     </g>
     <g id="text_25">
      <!-- 0.0 -->
      <g transform="translate(597.590006 276.027312) scale(0.1 -0.1)">
       <use xlink:href="#DejaVuSans-13"/>
       <use xlink:href="#DejaVuSans-11" transform="translate(63.625 0)"/>
       <use xlink:href="#DejaVuSans-13" transform="translate(95.40625 0)"/>
      </g>
     </g>
    </g>
    <g id="xtick_11">
     <g id="line2d_48">
      <path d="M 653.514619 261.429656
L 653.514619 50.354813
" clip-path="url(#pc0ee34c7f2)" style="fill: none; stroke: #b0b0b0; stroke-opacity: 0.2; stroke-width: 0.8; stroke-linecap: square"/>
     </g>
     <g id="line2d_49">
      <g>
       <use xlink:href="#m5e4f4c4333" x="653.514619" y="261.429656" style="stroke: #000000; stroke-width: 0.8"/>
      </g>
     </g>
     <g id="text_26">
      <!-- 0.5 -->
      <g transform="translate(645.563056 276.027312) scale(0.1 -0.1)">
       <use xlink:href="#DejaVuSans-13"/>
       <use xlink:href="#DejaVuSans-11" transform="translate(63.625 0)"/>
       <use xlink:href="#DejaVuSans-18" transform="translate(95.40625 0)"/>
      </g>
     </g>
    </g>
    <g id="xtick_12">
     <g id="line2d_50">
      <path d="M 701.487669 261.429656
L 701.487669 50.354813
" clip-path="url(#pc0ee34c7f2)" style="fill: none; stroke: #b0b0b0; stroke-opacity: 0.2; stroke-width: 0.8; stroke-linecap: square"/>
     </g>
     <g id="line2d_51">
      <g>
       <use xlink:href="#m5e4f4c4333" x="701.487669" y="261.429656" style="stroke: #000000; stroke-width: 0.8"/>
      </g>
     </g>
     <g id="text_27">
      <!-- 1.0 -->
      <g transform="translate(693.536106 276.027312) scale(0.1 -0.1)">
       <use xlink:href="#DejaVuSans-14"/>
       <use xlink:href="#DejaVuSans-11" transform="translate(63.625 0)"/>
       <use xlink:href="#DejaVuSans-13" transform="translate(95.40625 0)"/>
      </g>
     </g>
    </g>
    <g id="text_28">
     <!-- Real part -->
     <g transform="translate(583.617014 290.028094) scale(0.1 -0.1)">
      <defs>
       <path id="DejaVuSans-35" d="M 2841 2188
Q 3044 2119 3236 1894
Q 3428 1669 3622 1275
L 4263 0
L 3584 0
L 2988 1197
Q 2756 1666 2539 1819
Q 2322 1972 1947 1972
L 1259 1972
L 1259 0
L 628 0
L 628 4666
L 2053 4666
Q 2853 4666 3247 4331
Q 3641 3997 3641 3322
Q 3641 2881 3436 2590
Q 3231 2300 2841 2188
z
M 1259 4147
L 1259 2491
L 2053 2491
Q 2509 2491 2742 2702
Q 2975 2913 2975 3322
Q 2975 3731 2742 3939
Q 2509 4147 2053 4147
L 1259 4147
z
" transform="scale(0.015625)"/>
       <path id="DejaVuSans-55" d="M 2631 2963
Q 2534 3019 2420 3045
Q 2306 3072 2169 3072
Q 1681 3072 1420 2755
Q 1159 2438 1159 1844
L 1159 0
L 581 0
L 581 3500
L 1159 3500
L 1159 2956
Q 1341 3275 1631 3429
Q 1922 3584 2338 3584
Q 2397 3584 2469 3576
Q 2541 3569 2628 3553
L 2631 2963
z
" transform="scale(0.015625)"/>
      </defs>
      <use xlink:href="#DejaVuSans-35"/>
      <use xlink:href="#DejaVuSans-48" transform="translate(65 0)"/>
      <use xlink:href="#DejaVuSans-44" transform="translate(126.53125 0)"/>
      <use xlink:href="#DejaVuSans-4f" transform="translate(187.8125 0)"/>
      <use xlink:href="#DejaVuSans-3" transform="translate(215.59375 0)"/>
      <use xlink:href="#DejaVuSans-53" transform="translate(247.375 0)"/>
      <use xlink:href="#DejaVuSans-44" transform="translate(310.859375 0)"/>
      <use xlink:href="#DejaVuSans-55" transform="translate(372.140625 0)"/>
      <use xlink:href="#DejaVuSans-57" transform="translate(413.25 0)"/>
     </g>
    </g>
   </g>
   <g id="matplotlib.axis_4">
    <g id="ytick_10">
     <g id="line2d_52">
      <path d="M 499.9442 251.838334
L 712.53514 251.838334
" clip-path="url(#pc0ee34c7f2)" style="fill: none; stroke: #b0b0b0; stroke-opacity: 0.2; stroke-width: 0.8; stroke-linecap: square"/>
     </g>
     <g id="line2d_53">
      <g>
       <use xlink:href="#mdd09d77f4a" x="499.9442" y="251.838334" style="stroke: #000000; stroke-width: 0.8"/>
      </g>
     </g>
     <g id="text_29">
      <!-- −1.00 -->
      <g transform="translate(462.298888 255.637162) scale(0.1 -0.1)">
       <use xlink:href="#DejaVuSans-c9c"/>
       <use xlink:href="#DejaVuSans-14" transform="translate(83.796875 0)"/>
       <use xlink:href="#DejaVuSans-11" transform="translate(147.421875 0)"/>
       <use xlink:href="#DejaVuSans-13" transform="translate(179.203125 0)"/>
       <use xlink:href="#DejaVuSans-13" transform="translate(242.828125 0)"/>
      </g>
     </g>
    </g>
    <g id="ytick_11">
     <g id="line2d_54">
      <path d="M 499.9442 227.851809
L 712.53514 227.851809
" clip-path="url(#pc0ee34c7f2)" style="fill: none; stroke: #b0b0b0; stroke-opacity: 0.2; stroke-width: 0.8; stroke-linecap: square"/>
     </g>
     <g id="line2d_55">
      <g>
       <use xlink:href="#mdd09d77f4a" x="499.9442" y="227.851809" style="stroke: #000000; stroke-width: 0.8"/>
      </g>
     </g>
     <g id="text_30">
      <!-- −0.75 -->
      <g transform="translate(462.298888 231.650637) scale(0.1 -0.1)">
       <defs>
        <path id="DejaVuSans-1a" d="M 525 4666
L 3525 4666
L 3525 4397
L 1831 0
L 1172 0
L 2766 4134
L 525 4134
L 525 4666
z
" transform="scale(0.015625)"/>
       </defs>
       <use xlink:href="#DejaVuSans-c9c"/>
       <use xlink:href="#DejaVuSans-13" transform="translate(83.796875 0)"/>
       <use xlink:href="#DejaVuSans-11" transform="translate(147.421875 0)"/>
       <use xlink:href="#DejaVuSans-1a" transform="translate(179.203125 0)"/>
       <use xlink:href="#DejaVuSans-18" transform="translate(242.828125 0)"/>
      </g>
     </g>
    </g>
    <g id="ytick_12">
     <g id="line2d_56">
      <path d="M 499.9442 203.865284
L 712.53514 203.865284
" clip-path="url(#pc0ee34c7f2)" style="fill: none; stroke: #b0b0b0; stroke-opacity: 0.2; stroke-width: 0.8; stroke-linecap: square"/>
     </g>
     <g id="line2d_57">
      <g>
       <use xlink:href="#mdd09d77f4a" x="499.9442" y="203.865284" style="stroke: #000000; stroke-width: 0.8"/>
      </g>
     </g>
     <g id="text_31">
      <!-- −0.50 -->
      <g transform="translate(462.298888 207.664112) scale(0.1 -0.1)">
       <use xlink:href="#DejaVuSans-c9c"/>
       <use xlink:href="#DejaVuSans-13" transform="translate(83.796875 0)"/>
       <use xlink:href="#DejaVuSans-11" transform="translate(147.421875 0)"/>
       <use xlink:href="#DejaVuSans-18" transform="translate(179.203125 0)"/>
       <use xlink:href="#DejaVuSans-13" transform="translate(242.828125 0)"/>
      </g>
     </g>
    </g>
    <g id="ytick_13">
     <g id="line2d_58">
      <path d="M 499.9442 179.878759
L 712.53514 179.878759
" clip-path="url(#pc0ee34c7f2)" style="fill: none; stroke: #b0b0b0; stroke-opacity: 0.2; stroke-width: 0.8; stroke-linecap: square"/>
     </g>
     <g id="line2d_59">
      <g>
       <use xlink:href="#mdd09d77f4a" x="499.9442" y="179.878759" style="stroke: #000000; stroke-width: 0.8"/>
      </g>
     </g>
     <g id="text_32">
      <!-- −0.25 -->
      <g transform="translate(462.298888 183.677587) scale(0.1 -0.1)">
       <use xlink:href="#DejaVuSans-c9c"/>
       <use xlink:href="#DejaVuSans-13" transform="translate(83.796875 0)"/>
       <use xlink:href="#DejaVuSans-11" transform="translate(147.421875 0)"/>
       <use xlink:href="#DejaVuSans-15" transform="translate(179.203125 0)"/>
       <use xlink:href="#DejaVuSans-18" transform="translate(242.828125 0)"/>
      </g>
     </g>
    </g>
    <g id="ytick_14">
     <g id="line2d_60">
      <path d="M 499.9442 155.892234
L 712.53514 155.892234
" clip-path="url(#pc0ee34c7f2)" style="fill: none; stroke: #b0b0b0; stroke-opacity: 0.2; stroke-width: 0.8; stroke-linecap: square"/>
     </g>
     <g id="line2d_61">
      <g>
       <use xlink:href="#mdd09d77f4a" x="499.9442" y="155.892234" style="stroke: #000000; stroke-width: 0.8"/>
      </g>
     </g>
     <g id="text_33">
      <!-- 0.00 -->
      <g transform="translate(470.678575 159.691062) scale(0.1 -0.1)">
       <use xlink:href="#DejaVuSans-13"/>
       <use xlink:href="#DejaVuSans-11" transform="translate(63.625 0)"/>
       <use xlink:href="#DejaVuSans-13" transform="translate(95.40625 0)"/>
       <use xlink:href="#DejaVuSans-13" transform="translate(159.03125 0)"/>
      </g>
     </g>
    </g>
    <g id="ytick_15">
     <g id="line2d_62">
      <path d="M 499.9442 131.905709
L 712.53514 131.905709
" clip-path="url(#pc0ee34c7f2)" style="fill: none; stroke: #b0b0b0; stroke-opacity: 0.2; stroke-width: 0.8; stroke-linecap: square"/>
     </g>
     <g id="line2d_63">
      <g>
       <use xlink:href="#mdd09d77f4a" x="499.9442" y="131.905709" style="stroke: #000000; stroke-width: 0.8"/>
      </g>
     </g>
     <g id="text_34">
      <!-- 0.25 -->
      <g transform="translate(470.678575 135.704538) scale(0.1 -0.1)">
       <use xlink:href="#DejaVuSans-13"/>
       <use xlink:href="#DejaVuSans-11" transform="translate(63.625 0)"/>
       <use xlink:href="#DejaVuSans-15" transform="translate(95.40625 0)"/>
       <use xlink:href="#DejaVuSans-18" transform="translate(159.03125 0)"/>
      </g>
     </g>
    </g>
    <g id="ytick_16">
     <g id="line2d_64">
      <path d="M 499.9442 107.919184
L 712.53514 107.919184
" clip-path="url(#pc0ee34c7f2)" style="fill: none; stroke: #b0b0b0; stroke-opacity: 0.2; stroke-width: 0.8; stroke-linecap: square"/>
     </g>
     <g id="line2d_65">
      <g>
       <use xlink:href="#mdd09d77f4a" x="499.9442" y="107.919184" style="stroke: #000000; stroke-width: 0.8"/>
      </g>
     </g>
     <g id="text_35">
      <!-- 0.50 -->
      <g transform="translate(470.678575 111.718013) scale(0.1 -0.1)">
       <use xlink:href="#DejaVuSans-13"/>
       <use xlink:href="#DejaVuSans-11" transform="translate(63.625 0)"/>
       <use xlink:href="#DejaVuSans-18" transform="translate(95.40625 0)"/>
       <use xlink:href="#DejaVuSans-13" transform="translate(159.03125 0)"/>
      </g>
     </g>
    </g>
    <g id="ytick_17">
     <g id="line2d_66">
      <path d="M 499.9442 83.93266
L 712.53514 83.93266
" clip-path="url(#pc0ee34c7f2)" style="fill: none; stroke: #b0b0b0; stroke-opacity: 0.2; stroke-width: 0.8; stroke-linecap: square"/>
     </g>
     <g id="line2d_67">
      <g>
       <use xlink:href="#mdd09d77f4a" x="499.9442" y="83.93266" style="stroke: #000000; stroke-width: 0.8"/>
      </g>
     </g>
     <g id="text_36">
      <!-- 0.75 -->
      <g transform="translate(470.678575 87.731488) scale(0.1 -0.1)">
       <use xlink:href="#DejaVuSans-13"/>
       <use xlink:href="#DejaVuSans-11" transform="translate(63.625 0)"/>
       <use xlink:href="#DejaVuSans-1a" transform="translate(95.40625 0)"/>
       <use xlink:href="#DejaVuSans-18" transform="translate(159.03125 0)"/>
      </g>
     </g>
    </g>
    <g id="ytick_18">
     <g id="line2d_68">
      <path d="M 499.9442 59.946135
L 712.53514 59.946135
" clip-path="url(#pc0ee34c7f2)" style="fill: none; stroke: #b0b0b0; stroke-opacity: 0.2; stroke-width: 0.8; stroke-linecap: square"/>
     </g>
     <g id="line2d_69">
      <g>
       <use xlink:href="#mdd09d77f4a" x="499.9442" y="59.946135" style="stroke: #000000; stroke-width: 0.8"/>
      </g>
     </g>
     <g id="text_37">
      <!-- 1.00 -->
      <g transform="translate(470.678575 63.744963) scale(0.1 -0.1)">
       <use xlink:href="#DejaVuSans-14"/>
       <use xlink:href="#DejaVuSans-11" transform="translate(63.625 0)"/>
       <use xlink:href="#DejaVuSans-13" transform="translate(95.40625 0)"/>
       <use xlink:href="#DejaVuSans-13" transform="translate(159.03125 0)"/>
      </g>
     </g>
    </g>
    <g id="text_38">
     <!-- Imaginary part -->
     <g transform="translate(455.896544 192.955516) rotate(-90) scale(0.1 -0.1)">
      <defs>
       <path id="DejaVuSans-2c" d="M 628 4666
L 1259 4666
L 1259 0
L 628 0
L 628 4666
z
" transform="scale(0.015625)"/>
       <path id="DejaVuSans-4a" d="M 2906 1791
Q 2906 2416 2648 2759
Q 2391 3103 1925 3103
Q 1463 3103 1205 2759
Q 947 2416 947 1791
Q 947 1169 1205 825
Q 1463 481 1925 481
Q 2391 481 2648 825
Q 2906 1169 2906 1791
z
M 3481 434
Q 3481 -459 3084 -895
Q 2688 -1331 1869 -1331
Q 1566 -1331 1297 -1286
Q 1028 -1241 775 -1147
L 775 -588
Q 1028 -725 1275 -790
Q 1522 -856 1778 -856
Q 2344 -856 2625 -561
Q 2906 -266 2906 331
L 2906 616
Q 2728 306 2450 153
Q 2172 0 1784 0
Q 1141 0 747 490
Q 353 981 353 1791
Q 353 2603 747 3093
Q 1141 3584 1784 3584
Q 2172 3584 2450 3431
Q 2728 3278 2906 2969
L 2906 3500
L 3481 3500
L 3481 434
z
" transform="scale(0.015625)"/>
      </defs>
      <use xlink:href="#DejaVuSans-2c"/>
      <use xlink:href="#DejaVuSans-50" transform="translate(29.5 0)"/>
      <use xlink:href="#DejaVuSans-44" transform="translate(126.90625 0)"/>
      <use xlink:href="#DejaVuSans-4a" transform="translate(188.1875 0)"/>
      <use xlink:href="#DejaVuSans-4c" transform="translate(251.671875 0)"/>
      <use xlink:href="#DejaVuSans-51" transform="translate(279.453125 0)"/>
      <use xlink:href="#DejaVuSans-44" transform="translate(342.828125 0)"/>
      <use xlink:href="#DejaVuSans-55" transform="translate(404.109375 0)"/>
      <use xlink:href="#DejaVuSans-5c" transform="translate(445.21875 0)"/>
      <use xlink:href="#DejaVuSans-3" transform="translate(504.40625 0)"/>
      <use xlink:href="#DejaVuSans-53" transform="translate(536.1875 0)"/>
      <use xlink:href="#DejaVuSans-44" transform="translate(599.671875 0)"/>
      <use xlink:href="#DejaVuSans-55" transform="translate(660.953125 0)"/>
      <use xlink:href="#DejaVuSans-57" transform="translate(702.0625 0)"/>
     </g>
    </g>
   </g>
   <g id="line2d_70">
    <path d="M 701.487669 155.892234
L 701.296434 149.837495
L 700.723492 143.806892
L 699.771128 137.824464
L 698.443136 131.91406
L 696.744812 126.09924
L 694.682925 120.403184
L 692.265694 114.848597
L 689.502756 109.457623
L 686.405123 104.25175
L 682.985145 99.251731
L 679.256454 94.477498
L 675.233913 89.948083
L 670.933559 85.681539
L 666.372533 81.694877
L 661.569017 78.003987
L 656.542159 74.623582
L 651.311998 71.567138
L 645.899382 68.846838
L 640.325888 66.473527
L 634.613734 64.456665
L 628.78569 62.804293
L 622.864987 61.522996
L 616.875229 60.617882
L 610.840291 60.09256
L 604.784231 59.949124
L 598.73119 60.188145
L 592.705297 60.80867
L 586.730573 61.808227
L 580.830836 63.18283
L 575.029602 64.926999
L 569.349998 67.033783
L 563.814665 69.494783
L 558.445667 72.300189
L 553.264407 75.438816
L 548.29154 78.898155
L 543.546887 82.664415
L 539.049364 86.722582
L 534.816898 91.05648
L 530.866362 95.648832
L 527.213502 100.481332
L 523.872882 105.534716
L 520.857816 110.78884
L 518.180325 116.22276
L 515.851082 121.814813
L 513.879371 127.542709
L 512.273053 133.383615
L 511.03853 139.314246
L 510.180724 145.310963
L 509.703054 151.349859
L 509.607425 157.406863
L 509.894217 163.457829
L 510.562288 169.478636
L 511.608974 175.445284
L 513.030103 181.333987
L 514.82001 187.121272
L 516.971559 192.78407
L 519.476175 198.299805
L 522.323872 203.646492
L 525.5033 208.802816
L 529.001784 213.748223
L 532.805377 218.462999
L 536.898919 222.928349
L 541.26609 227.126474
L 545.889482 231.040638
L 550.750665 234.655239
L 555.830261 237.955868
L 561.10802 240.929366
L 566.562904 243.563882
L 572.173169 245.848913
L 577.91645 247.77535
L 583.769853 249.335514
L 589.710045 250.523185
L 595.713345 251.33363
L 601.755824 251.763618
L 607.813393 251.811434
L 613.861907 251.476888
L 619.877253 250.761314
L 625.835453 249.667563
L 631.712756 248.199997
L 637.485733 246.364465
L 643.13137 244.168284
L 648.627164 241.620208
L 653.951206 238.730396
L 659.082273 235.510367
L 663.999911 231.972956
L 668.684517 228.132266
L 673.117417 224.003605
L 677.280939 219.603433
L 681.158488 214.949289
L 684.734605 210.059726
L 687.995035 204.954236
L 690.926782 199.65317
L 693.518158 194.17766
L 695.758834 188.549533
L 697.639877 182.791225
L 699.153789 176.92569
L 700.294536 170.976309
L 701.057569 164.966798
L 701.439848 158.921114
L 701.487669 155.892234
L 701.487669 155.892234
" clip-path="url(#pc0ee34c7f2)" style="fill: none; stroke: #b2b2b2; stroke-linecap: square"/>
   </g>
   <g id="patch_9">
    <path d="M 499.9442 261.429656
L 499.9442 50.354813
" style="fill: none; stroke: #000000; stroke-width: 0.8; stroke-linejoin: miter; stroke-linecap: square"/>
   </g>
   <g id="patch_10">
    <path d="M 712.53514 261.429656
L 712.53514 50.354813
" style="fill: none; stroke: #000000; stroke-width: 0.8; stroke-linejoin: miter; stroke-linecap: square"/>
   </g>
   <g id="patch_11">
    <path d="M 499.9442 261.429656
L 712.53514 261.429656
" style="fill: none; stroke: #000000; stroke-width: 0.8; stroke-linejoin: miter; stroke-linecap: square"/>
   </g>
   <g id="patch_12">
    <path d="M 499.9442 50.354813
L 712.53514 50.354813
" style="fill: none; stroke: #000000; stroke-width: 0.8; stroke-linejoin: miter; stroke-linecap: square"/>
   </g>
   <g id="text_39">
    <!-- Augmented sampled-system eigenvalues -->
    <g transform="translate(481.861545 44.354813) scale(0.12 -0.12)">
     <defs>
      <path id="DejaVuSans-24" d="M 2188 4044
L 1331 1722
L 3047 1722
L 2188 4044
z
M 1831 4666
L 2547 4666
L 4325 0
L 3669 0
L 3244 1197
L 1141 1197
L 716 0
L 50 0
L 1831 4666
z
" transform="scale(0.015625)"/>
      <path id="DejaVuSans-10" d="M 313 2009
L 1997 2009
L 1997 1497
L 313 1497
L 313 2009
z
" transform="scale(0.015625)"/>
     </defs>
     <use xlink:href="#DejaVuSans-24"/>
     <use xlink:href="#DejaVuSans-58" transform="translate(68.40625 0)"/>
     <use xlink:href="#DejaVuSans-4a" transform="translate(131.78125 0)"/>
     <use xlink:href="#DejaVuSans-50" transform="translate(195.265625 0)"/>
     <use xlink:href="#DejaVuSans-48" transform="translate(292.671875 0)"/>
     <use xlink:href="#DejaVuSans-51" transform="translate(354.203125 0)"/>
     <use xlink:href="#DejaVuSans-57" transform="translate(417.578125 0)"/>
     <use xlink:href="#DejaVuSans-48" transform="translate(456.78125 0)"/>
     <use xlink:href="#DejaVuSans-47" transform="translate(518.3125 0)"/>
     <use xlink:href="#DejaVuSans-3" transform="translate(581.796875 0)"/>
     <use xlink:href="#DejaVuSans-56" transform="translate(613.578125 0)"/>
     <use xlink:href="#DejaVuSans-44" transform="translate(665.671875 0)"/>
     <use xlink:href="#DejaVuSans-50" transform="translate(726.953125 0)"/>
     <use xlink:href="#DejaVuSans-53" transform="translate(824.359375 0)"/>
     <use xlink:href="#DejaVuSans-4f" transform="translate(887.84375 0)"/>
     <use xlink:href="#DejaVuSans-48" transform="translate(915.625 0)"/>
     <use xlink:href="#DejaVuSans-47" transform="translate(977.15625 0)"/>
     <use xlink:href="#DejaVuSans-10" transform="translate(1040.640625 0)"/>
     <use xlink:href="#DejaVuSans-56" transform="translate(1076.71875 0)"/>
     <use xlink:href="#DejaVuSans-5c" transform="translate(1128.8125 0)"/>
     <use xlink:href="#DejaVuSans-56" transform="translate(1188 0)"/>
     <use xlink:href="#DejaVuSans-57" transform="translate(1240.09375 0)"/>
     <use xlink:href="#DejaVuSans-48" transform="translate(1279.296875 0)"/>
     <use xlink:href="#DejaVuSans-50" transform="translate(1340.828125 0)"/>
     <use xlink:href="#DejaVuSans-3" transform="translate(1438.234375 0)"/>
     <use xlink:href="#DejaVuSans-48" transform="translate(1470.015625 0)"/>
     <use xlink:href="#DejaVuSans-4c" transform="translate(1531.546875 0)"/>
     <use xlink:href="#DejaVuSans-4a" transform="translate(1559.328125 0)"/>
     <use xlink:href="#DejaVuSans-48" transform="translate(1622.8125 0)"/>
     <use xlink:href="#DejaVuSans-51" transform="translate(1684.34375 0)"/>
     <use xlink:href="#DejaVuSans-59" transform="translate(1747.71875 0)"/>
     <use xlink:href="#DejaVuSans-44" transform="translate(1806.90625 0)"/>
     <use xlink:href="#DejaVuSans-4f" transform="translate(1868.1875 0)"/>
     <use xlink:href="#DejaVuSans-58" transform="translate(1895.96875 0)"/>
     <use xlink:href="#DejaVuSans-48" transform="translate(1959.34375 0)"/>
     <use xlink:href="#DejaVuSans-56" transform="translate(2020.875 0)"/>
    </g>
   </g>
   <g id="legend_2">
    <g id="patch_13">
     <path d="M 570.98092 181.093484
L 641.49842 181.093484
Q 643.09842 181.093484 643.09842 179.493484
L 643.09842 132.290984
Q 643.09842 130.690984 641.49842 130.690984
L 570.98092 130.690984
Q 569.38092 130.690984 569.38092 132.290984
L 569.38092 179.493484
Q 569.38092 181.093484 570.98092 181.093484
z
" style="fill: #ffffff; opacity: 0.8; stroke: #cccccc; stroke-linejoin: miter"/>
    </g>
    <g id="line2d_71">
     <path d="M 572.58092 137.169734
L 580.58092 137.169734
L 588.58092 137.169734
" style="fill: none; stroke: #b2b2b2; stroke-linecap: square"/>
    </g>
    <g id="text_40">
     <!-- Unit circle -->
     <g transform="translate(594.98092 139.969734) scale(0.08 -0.08)">
      <defs>
       <path id="DejaVuSans-38" d="M 556 4666
L 1191 4666
L 1191 1831
Q 1191 1081 1462 751
Q 1734 422 2344 422
Q 2950 422 3222 751
Q 3494 1081 3494 1831
L 3494 4666
L 4128 4666
L 4128 1753
Q 4128 841 3676 375
Q 3225 -91 2344 -91
Q 1459 -91 1007 375
Q 556 841 556 1753
L 556 4666
z
" transform="scale(0.015625)"/>
      </defs>
      <use xlink:href="#DejaVuSans-38"/>
      <use xlink:href="#DejaVuSans-51" transform="translate(73.1875 0)"/>
      <use xlink:href="#DejaVuSans-4c" transform="translate(136.5625 0)"/>
      <use xlink:href="#DejaVuSans-57" transform="translate(164.34375 0)"/>
      <use xlink:href="#DejaVuSans-3" transform="translate(203.546875 0)"/>
      <use xlink:href="#DejaVuSans-46" transform="translate(235.328125 0)"/>
      <use xlink:href="#DejaVuSans-4c" transform="translate(290.3125 0)"/>
      <use xlink:href="#DejaVuSans-55" transform="translate(318.09375 0)"/>
      <use xlink:href="#DejaVuSans-46" transform="translate(357 0)"/>
      <use xlink:href="#DejaVuSans-4f" transform="translate(411.984375 0)"/>
      <use xlink:href="#DejaVuSans-48" transform="translate(439.765625 0)"/>
     </g>
    </g>
    <g id="PathCollection_4">
     <g>
      <use xlink:href="#mb3623dab92" x="580.58092" y="149.870359" style="fill: #1f77b4; stroke: #1f77b4"/>
     </g>
    </g>
    <g id="text_41">
     <!-- Delay 0 s -->
     <g transform="translate(594.98092 151.970359) scale(0.08 -0.08)">
      <use xlink:href="#DejaVuSans-27"/>
      <use xlink:href="#DejaVuSans-48" transform="translate(77 0)"/>
      <use xlink:href="#DejaVuSans-4f" transform="translate(138.53125 0)"/>
      <use xlink:href="#DejaVuSans-44" transform="translate(166.3125 0)"/>
      <use xlink:href="#DejaVuSans-5c" transform="translate(227.59375 0)"/>
      <use xlink:href="#DejaVuSans-3" transform="translate(286.78125 0)"/>
      <use xlink:href="#DejaVuSans-13" transform="translate(318.5625 0)"/>
      <use xlink:href="#DejaVuSans-3" transform="translate(382.1875 0)"/>
      <use xlink:href="#DejaVuSans-56" transform="translate(413.96875 0)"/>
     </g>
    </g>
    <g id="PathCollection_5">
     <g>
      <use xlink:href="#me2c364f9ed" x="580.58092" y="161.870984" style="fill: #ff7f0e; stroke: #ff7f0e"/>
     </g>
    </g>
    <g id="text_42">
     <!-- Delay 0.1 s -->
     <g transform="translate(594.98092 163.970984) scale(0.08 -0.08)">
      <use xlink:href="#DejaVuSans-27"/>
      <use xlink:href="#DejaVuSans-48" transform="translate(77 0)"/>
      <use xlink:href="#DejaVuSans-4f" transform="translate(138.53125 0)"/>
      <use xlink:href="#DejaVuSans-44" transform="translate(166.3125 0)"/>
      <use xlink:href="#DejaVuSans-5c" transform="translate(227.59375 0)"/>
      <use xlink:href="#DejaVuSans-3" transform="translate(286.78125 0)"/>
      <use xlink:href="#DejaVuSans-13" transform="translate(318.5625 0)"/>
      <use xlink:href="#DejaVuSans-11" transform="translate(382.1875 0)"/>
      <use xlink:href="#DejaVuSans-14" transform="translate(413.96875 0)"/>
      <use xlink:href="#DejaVuSans-3" transform="translate(477.59375 0)"/>
      <use xlink:href="#DejaVuSans-56" transform="translate(509.375 0)"/>
     </g>
    </g>
    <g id="PathCollection_6">
     <g>
      <use xlink:href="#m1ba5e7a336" x="580.58092" y="173.871609" style="fill: #2ca02c; stroke: #2ca02c"/>
     </g>
    </g>
    <g id="text_43">
     <!-- Delay 0.4 s -->
     <g transform="translate(594.98092 175.971609) scale(0.08 -0.08)">
      <use xlink:href="#DejaVuSans-27"/>
      <use xlink:href="#DejaVuSans-48" transform="translate(77 0)"/>
      <use xlink:href="#DejaVuSans-4f" transform="translate(138.53125 0)"/>
      <use xlink:href="#DejaVuSans-44" transform="translate(166.3125 0)"/>
      <use xlink:href="#DejaVuSans-5c" transform="translate(227.59375 0)"/>
      <use xlink:href="#DejaVuSans-3" transform="translate(286.78125 0)"/>
      <use xlink:href="#DejaVuSans-13" transform="translate(318.5625 0)"/>
      <use xlink:href="#DejaVuSans-11" transform="translate(382.1875 0)"/>
      <use xlink:href="#DejaVuSans-17" transform="translate(413.96875 0)"/>
      <use xlink:href="#DejaVuSans-3" transform="translate(477.59375 0)"/>
      <use xlink:href="#DejaVuSans-56" transform="translate(509.375 0)"/>
     </g>
    </g>
   </g>
  </g>
  <g id="text_44">
   <!-- Classical validation: unsaturated fixed-cadence feedback -->
   <g transform="translate(219.95 16.318125) scale(0.12 -0.12)">
    <defs>
     <path id="DejaVuSans-26" d="M 4122 4306
L 4122 3641
Q 3803 3938 3442 4084
Q 3081 4231 2675 4231
Q 1875 4231 1450 3742
Q 1025 3253 1025 2328
Q 1025 1406 1450 917
Q 1875 428 2675 428
Q 3081 428 3442 575
Q 3803 722 4122 1019
L 4122 359
Q 3791 134 3420 21
Q 3050 -91 2638 -91
Q 1578 -91 968 557
Q 359 1206 359 2328
Q 359 3453 968 4101
Q 1578 4750 2638 4750
Q 3056 4750 3426 4639
Q 3797 4528 4122 4306
z
" transform="scale(0.015625)"/>
     <path id="DejaVuSans-1d" d="M 750 794
L 1409 794
L 1409 0
L 750 0
L 750 794
z
M 750 3309
L 1409 3309
L 1409 2516
L 750 2516
L 750 3309
z
" transform="scale(0.015625)"/>
     <path id="DejaVuSans-13af" d="M 3431 3500
L 3431 0
L 2853 0
L 2853 3053
L 1275 3053
L 1275 0
L 697 0
L 697 3053
L 147 3053
L 147 3500
L 697 3500
L 697 3744
Q 697 4316 967 4589
Q 1238 4863 1797 4863
L 2375 4863
L 2375 4384
L 1825 4384
Q 1516 4384 1395 4259
Q 1275 4134 1275 3809
L 1275 3500
L 3431 3500
z
M 2853 4856
L 3431 4856
L 3431 4128
L 2853 4128
L 2853 4856
z
" transform="scale(0.015625)"/>
     <path id="DejaVuSans-5b" d="M 3513 3500
L 2247 1797
L 3578 0
L 2900 0
L 1881 1375
L 863 0
L 184 0
L 1544 1831
L 300 3500
L 978 3500
L 1906 2253
L 2834 3500
L 3513 3500
z
" transform="scale(0.015625)"/>
     <path id="DejaVuSans-49" d="M 2375 4863
L 2375 4384
L 1825 4384
Q 1516 4384 1395 4259
Q 1275 4134 1275 3809
L 1275 3500
L 2222 3500
L 2222 3053
L 1275 3053
L 1275 0
L 697 0
L 697 3053
L 147 3053
L 147 3500
L 697 3500
L 697 3744
Q 697 4328 969 4595
Q 1241 4863 1831 4863
L 2375 4863
z
" transform="scale(0.015625)"/>
     <path id="DejaVuSans-45" d="M 3116 1747
Q 3116 2381 2855 2742
Q 2594 3103 2138 3103
Q 1681 3103 1420 2742
Q 1159 2381 1159 1747
Q 1159 1113 1420 752
Q 1681 391 2138 391
Q 2594 391 2855 752
Q 3116 1113 3116 1747
z
M 1159 2969
Q 1341 3281 1617 3432
Q 1894 3584 2278 3584
Q 2916 3584 3314 3078
Q 3713 2572 3713 1747
Q 3713 922 3314 415
Q 2916 -91 2278 -91
Q 1894 -91 1617 61
Q 1341 213 1159 525
L 1159 0
L 581 0
L 581 4863
L 1159 4863
L 1159 2969
z
" transform="scale(0.015625)"/>
     <path id="DejaVuSans-4e" d="M 581 4863
L 1159 4863
L 1159 1991
L 2875 3500
L 3609 3500
L 1753 1863
L 3688 0
L 2938 0
L 1159 1709
L 1159 0
L 581 0
L 581 4863
z
" transform="scale(0.015625)"/>
    </defs>
    <use xlink:href="#DejaVuSans-26"/>
    <use xlink:href="#DejaVuSans-4f" transform="translate(69.828125 0)"/>
    <use xlink:href="#DejaVuSans-44" transform="translate(97.609375 0)"/>
    <use xlink:href="#DejaVuSans-56" transform="translate(158.890625 0)"/>
    <use xlink:href="#DejaVuSans-56" transform="translate(210.984375 0)"/>
    <use xlink:href="#DejaVuSans-4c" transform="translate(263.078125 0)"/>
    <use xlink:href="#DejaVuSans-46" transform="translate(290.859375 0)"/>
    <use xlink:href="#DejaVuSans-44" transform="translate(345.84375 0)"/>
    <use xlink:href="#DejaVuSans-4f" transform="translate(407.125 0)"/>
    <use xlink:href="#DejaVuSans-3" transform="translate(434.90625 0)"/>
    <use xlink:href="#DejaVuSans-59" transform="translate(466.6875 0)"/>
    <use xlink:href="#DejaVuSans-44" transform="translate(525.875 0)"/>
    <use xlink:href="#DejaVuSans-4f" transform="translate(587.15625 0)"/>
    <use xlink:href="#DejaVuSans-4c" transform="translate(614.9375 0)"/>
    <use xlink:href="#DejaVuSans-47" transform="translate(642.71875 0)"/>
    <use xlink:href="#DejaVuSans-44" transform="translate(706.203125 0)"/>
    <use xlink:href="#DejaVuSans-57" transform="translate(767.484375 0)"/>
    <use xlink:href="#DejaVuSans-4c" transform="translate(806.6875 0)"/>
    <use xlink:href="#DejaVuSans-52" transform="translate(834.46875 0)"/>
    <use xlink:href="#DejaVuSans-51" transform="translate(895.65625 0)"/>
    <use xlink:href="#DejaVuSans-1d" transform="translate(959.03125 0)"/>
    <use xlink:href="#DejaVuSans-3" transform="translate(992.71875 0)"/>
    <use xlink:href="#DejaVuSans-58" transform="translate(1024.5 0)"/>
    <use xlink:href="#DejaVuSans-51" transform="translate(1087.875 0)"/>
    <use xlink:href="#DejaVuSans-56" transform="translate(1151.25 0)"/>
    <use xlink:href="#DejaVuSans-44" transform="translate(1203.34375 0)"/>
    <use xlink:href="#DejaVuSans-57" transform="translate(1264.625 0)"/>
    <use xlink:href="#DejaVuSans-58" transform="translate(1303.828125 0)"/>
    <use xlink:href="#DejaVuSans-55" transform="translate(1367.203125 0)"/>
    <use xlink:href="#DejaVuSans-44" transform="translate(1408.3125 0)"/>
    <use xlink:href="#DejaVuSans-57" transform="translate(1469.59375 0)"/>
    <use xlink:href="#DejaVuSans-48" transform="translate(1508.796875 0)"/>
    <use xlink:href="#DejaVuSans-47" transform="translate(1570.328125 0)"/>
    <use xlink:href="#DejaVuSans-3" transform="translate(1633.8125 0)"/>
    <use xlink:href="#DejaVuSans-13af" transform="translate(1665.59375 0)"/>
    <use xlink:href="#DejaVuSans-5b" transform="translate(1728.578125 0)"/>
    <use xlink:href="#DejaVuSans-48" transform="translate(1784.6875 0)"/>
    <use xlink:href="#DejaVuSans-47" transform="translate(1846.21875 0)"/>
    <use xlink:href="#DejaVuSans-10" transform="translate(1909.703125 0)"/>
    <use xlink:href="#DejaVuSans-46" transform="translate(1945.78125 0)"/>
    <use xlink:href="#DejaVuSans-44" transform="translate(2000.765625 0)"/>
    <use xlink:href="#DejaVuSans-47" transform="translate(2062.046875 0)"/>
    <use xlink:href="#DejaVuSans-48" transform="translate(2125.53125 0)"/>
    <use xlink:href="#DejaVuSans-51" transform="translate(2187.0625 0)"/>
    <use xlink:href="#DejaVuSans-46" transform="translate(2250.4375 0)"/>
    <use xlink:href="#DejaVuSans-48" transform="translate(2305.421875 0)"/>
    <use xlink:href="#DejaVuSans-3" transform="translate(2366.953125 0)"/>
    <use xlink:href="#DejaVuSans-49" transform="translate(2398.734375 0)"/>
    <use xlink:href="#DejaVuSans-48" transform="translate(2433.9375 0)"/>
    <use xlink:href="#DejaVuSans-48" transform="translate(2495.46875 0)"/>
    <use xlink:href="#DejaVuSans-47" transform="translate(2557 0)"/>
    <use xlink:href="#DejaVuSans-45" transform="translate(2620.484375 0)"/>
    <use xlink:href="#DejaVuSans-44" transform="translate(2683.96875 0)"/>
    <use xlink:href="#DejaVuSans-46" transform="translate(2745.25 0)"/>
    <use xlink:href="#DejaVuSans-4e" transform="translate(2800.234375 0)"/>
   </g>
  </g>
 </g>
 <defs>
  <clipPath id="p841af9daff">
   <rect x="54.200781" y="50.354813" width="340.797535" height="211.074844"/>
  </clipPath>
  <clipPath id="pc0ee34c7f2">
   <rect x="499.9442" y="50.354813" width="212.59094" height="211.074844"/>
  </clipPath>
 </defs>
</svg>
